999
"DXF R12 Output" (www.mydxf.blogspot.com)
 0 
SECTION
 2 
HEADER
 9 
$ACADVER
 1 
AC1009
 9 
$EXTMIN
 10 
 0 
 20 
 0 
 9 
$EXTMAX
 10 
 8.5 
 20 
 11 
 0 
ENDSEC
 0 
SECTION
 2 
ENTITIES
0
LINE
8
rib guides 47
10
3.386610
20
-34.114100
11
2.610583
21
-34.114249
0
LINE
8
rib guides 47
10
2.610583
20
-34.114249
11
2.610580
21
-43.850800
0
LINE
8
rib guides 47
10
2.610580
20
-43.850800
11
2.539992
21
-43.921388
0
LINE
8
rib guides 47
10
2.539992
20
-43.921388
11
1.975580
21
-43.921400
0
LINE
8
rib guides 47
10
1.975580
20
-43.921400
11
1.904992
21
-43.850812
0
LINE
8
rib guides 47
10
1.904992
20
-43.850812
11
1.904990
21
-41.663600
0
LINE
8
rib guides 47
10
1.904990
20
-41.663600
11
0.352793
21
-41.663600
0
LINE
8
rib guides 47
10
0.352793
20
-41.663600
11
0.352793
21
-45.191400
0
LINE
8
rib guides 47
10
0.352793
20
-45.191400
11
14.393300
21
-45.191400
0
LINE
8
rib guides 47
10
14.393300
20
-45.191400
11
28.504500
21
-45.191400
0
LINE
8
rib guides 47
10
28.504500
20
-45.191400
11
46.566600
21
-45.191400
0
LINE
8
rib guides 47
10
46.566600
20
-45.191400
11
60.677700
21
-45.191400
0
LINE
8
rib guides 47
10
60.677700
20
-45.191400
11
68.862300
21
-45.191400
0
LINE
8
rib guides 47
10
68.862300
20
-45.191400
11
70.485000
21
-45.191400
0
LINE
8
rib guides 47
10
70.485000
20
-45.191400
11
86.360000
21
-45.191400
0
LINE
8
rib guides 47
10
86.360000
20
-45.191400
11
100.471000
21
-45.191400
0
LINE
8
rib guides 47
10
100.471000
20
-45.191400
11
110.278000
21
-45.191400
0
LINE
8
rib guides 47
10
110.278000
20
-45.191400
11
110.278000
21
-41.663600
0
LINE
8
rib guides 47
10
110.278000
20
-41.663600
11
108.726000
21
-41.663600
0
LINE
8
rib guides 47
10
108.726000
20
-41.663600
11
108.726000
21
-43.850800
0
LINE
8
rib guides 47
10
108.726000
20
-43.850800
11
108.655406
21
-43.921388
0
LINE
8
rib guides 47
10
108.655406
20
-43.921388
11
108.091000
21
-43.921400
0
LINE
8
rib guides 47
10
108.091000
20
-43.921400
11
108.020413
21
-43.850812
0
LINE
8
rib guides 47
10
108.020413
20
-43.850812
11
108.021000
21
-34.114300
0
LINE
8
rib guides 47
10
108.021000
20
-34.114300
11
107.245000
21
-34.114300
0
LINE
8
rib guides 47
10
107.245000
20
-34.114300
11
107.245000
21
-34.114100
0
LINE
8
rib guides 47
10
107.245000
20
-34.114100
11
106.680000
21
-34.114100
0
LINE
8
rib guides 47
10
106.680000
20
-34.114100
11
106.680000
21
-34.184688
0
LINE
8
rib guides 47
10
106.680000
20
-34.184688
11
106.584221
21
-35.622912
0
LINE
8
rib guides 47
10
106.584221
20
-35.622912
11
106.304042
21
-36.992752
0
LINE
8
rib guides 47
10
106.304042
20
-36.992752
11
105.850194
21
-38.255714
0
LINE
8
rib guides 47
10
105.850194
20
-38.255714
11
105.233409
21
-39.373307
0
LINE
8
rib guides 47
10
105.233409
20
-39.373307
11
104.481175
21
-40.289657
0
LINE
8
rib guides 47
10
104.481175
20
-40.289657
11
103.631098
21
-40.963929
0
LINE
8
rib guides 47
10
103.631098
20
-40.963929
11
102.709087
21
-41.380177
0
LINE
8
rib guides 47
10
102.709087
20
-41.380177
11
101.741050
21
-41.522458
0
LINE
8
rib guides 47
10
101.741050
20
-41.522458
11
100.745706
21
-41.373357
0
LINE
8
rib guides 47
10
100.745706
20
-41.373357
11
99.818642
21
-40.945781
0
LINE
8
rib guides 47
10
99.818642
20
-40.945781
11
98.979716
21
-40.269236
0
LINE
8
rib guides 47
10
98.979716
20
-40.269236
11
98.248788
21
-39.373228
0
LINE
8
rib guides 47
10
98.248788
20
-39.373228
11
97.645718
21
-38.287263
0
LINE
8
rib guides 47
10
97.645718
20
-38.287263
11
97.190365
21
-37.040847
0
LINE
8
rib guides 47
10
97.190365
20
-37.040847
11
96.902589
21
-35.663487
0
LINE
8
rib guides 47
10
96.902589
20
-35.663487
11
96.802250
21
-34.184687
0
LINE
8
rib guides 47
10
96.802250
20
-34.184687
11
96.802250
21
-34.114100
0
LINE
8
rib guides 47
10
96.802250
20
-34.114100
11
96.237600
21
-34.114100
0
LINE
8
rib guides 47
10
96.237600
20
-34.114100
11
96.237600
21
-34.114300
0
LINE
8
rib guides 47
10
96.237600
20
-34.114300
11
95.461400
21
-34.114300
0
LINE
8
rib guides 47
10
95.461400
20
-34.114300
11
95.461400
21
-43.850800
0
LINE
8
rib guides 47
10
95.461400
20
-43.850800
11
95.390813
21
-43.921388
0
LINE
8
rib guides 47
10
95.390813
20
-43.921388
11
94.826400
21
-43.921400
0
LINE
8
rib guides 47
10
94.826400
20
-43.921400
11
94.755813
21
-43.850812
0
LINE
8
rib guides 47
10
94.755813
20
-43.850812
11
94.755800
21
-34.114300
0
LINE
8
rib guides 47
10
94.755800
20
-34.114300
11
93.979800
21
-34.114300
0
LINE
8
rib guides 47
10
93.979800
20
-34.114300
11
93.979800
21
-34.114100
0
LINE
8
rib guides 47
10
93.979800
20
-34.114100
11
93.415100
21
-34.114100
0
LINE
8
rib guides 47
10
93.415100
20
-34.114100
11
93.415100
21
-34.184688
0
LINE
8
rib guides 47
10
93.415100
20
-34.184688
11
93.314761
21
-35.663487
0
LINE
8
rib guides 47
10
93.314761
20
-35.663487
11
93.026985
21
-37.040847
0
LINE
8
rib guides 47
10
93.026985
20
-37.040847
11
92.571632
21
-38.287263
0
LINE
8
rib guides 47
10
92.571632
20
-38.287263
11
91.968562
21
-39.373228
0
LINE
8
rib guides 47
10
91.968562
20
-39.373228
11
91.237634
21
-40.269236
0
LINE
8
rib guides 47
10
91.237634
20
-40.269236
11
90.398708
21
-40.945781
0
LINE
8
rib guides 47
10
90.398708
20
-40.945781
11
89.471644
21
-41.373357
0
LINE
8
rib guides 47
10
89.471644
20
-41.373357
11
88.476300
21
-41.522458
0
LINE
8
rib guides 47
10
88.476300
20
-41.522458
11
87.508263
21
-41.380177
0
LINE
8
rib guides 47
10
87.508263
20
-41.380177
11
86.586252
21
-40.963929
0
LINE
8
rib guides 47
10
86.586252
20
-40.963929
11
85.736175
21
-40.289657
0
LINE
8
rib guides 47
10
85.736175
20
-40.289657
11
84.983941
21
-39.373307
0
LINE
8
rib guides 47
10
84.983941
20
-39.373307
11
84.367156
21
-38.255714
0
LINE
8
rib guides 47
10
84.367156
20
-38.255714
11
83.913308
21
-36.992752
0
LINE
8
rib guides 47
10
83.913308
20
-36.992752
11
83.633129
21
-35.622912
0
LINE
8
rib guides 47
10
83.633129
20
-35.622912
11
83.537350
21
-34.184687
0
LINE
8
rib guides 47
10
83.537350
20
-34.184687
11
83.537350
21
-34.114100
0
LINE
8
rib guides 47
10
83.537350
20
-34.114100
11
82.972800
21
-34.114100
0
LINE
8
rib guides 47
10
82.972800
20
-34.114100
11
82.972800
21
-34.114300
0
LINE
8
rib guides 47
10
82.972800
20
-34.114300
11
82.196500
21
-34.114300
0
LINE
8
rib guides 47
10
82.196500
20
-34.114300
11
82.196500
21
-43.850800
0
LINE
8
rib guides 47
10
82.196500
20
-43.850800
11
82.125913
21
-43.921388
0
LINE
8
rib guides 47
10
82.125913
20
-43.921388
11
81.561500
21
-43.921400
0
LINE
8
rib guides 47
10
81.561500
20
-43.921400
11
81.491063
21
-43.850812
0
LINE
8
rib guides 47
10
81.491063
20
-43.850812
11
81.491000
21
-34.114300
0
LINE
8
rib guides 47
10
81.491000
20
-34.114300
11
80.715000
21
-34.114300
0
LINE
8
rib guides 47
10
80.715000
20
-34.114300
11
80.715000
21
-34.114100
0
LINE
8
rib guides 47
10
80.715000
20
-34.114100
11
80.150500
21
-34.114100
0
LINE
8
rib guides 47
10
80.150500
20
-34.114100
11
80.150500
21
-34.184687
0
LINE
8
rib guides 47
10
80.150500
20
-34.184687
11
80.054721
21
-35.622912
0
LINE
8
rib guides 47
10
80.054721
20
-35.622912
11
79.774542
21
-36.992752
0
LINE
8
rib guides 47
10
79.774542
20
-36.992752
11
79.320694
21
-38.255714
0
LINE
8
rib guides 47
10
79.320694
20
-38.255714
11
78.703909
21
-39.373307
0
LINE
8
rib guides 47
10
78.703909
20
-39.373307
11
77.951675
21
-40.289657
0
LINE
8
rib guides 47
10
77.951675
20
-40.289657
11
77.101598
21
-40.963929
0
LINE
8
rib guides 47
10
77.101598
20
-40.963929
11
76.179587
21
-41.380177
0
LINE
8
rib guides 47
10
76.179587
20
-41.380177
11
75.211550
21
-41.522458
0
LINE
8
rib guides 47
10
75.211550
20
-41.522458
11
74.216205
21
-41.373359
0
LINE
8
rib guides 47
10
74.216205
20
-41.373359
11
73.289138
21
-40.945785
0
LINE
8
rib guides 47
10
73.289138
20
-40.945785
11
72.450211
21
-40.269241
0
LINE
8
rib guides 47
10
72.450211
20
-40.269241
11
71.719281
21
-39.373233
0
LINE
8
rib guides 47
10
71.719281
20
-39.373233
11
71.116210
21
-38.287267
0
LINE
8
rib guides 47
10
71.116210
20
-38.287267
11
70.660856
21
-37.040851
0
LINE
8
rib guides 47
10
70.660856
20
-37.040851
11
70.373080
21
-35.663489
0
LINE
8
rib guides 47
10
70.373080
20
-35.663489
11
70.272740
21
-34.184687
0
LINE
8
rib guides 47
10
70.272740
20
-34.184687
11
70.272889
21
-34.114100
0
LINE
8
rib guides 47
10
70.272889
20
-34.114100
11
69.708900
21
-34.114100
0
LINE
8
rib guides 47
10
69.708900
20
-34.114100
11
69.708900
21
-34.114300
0
LINE
8
rib guides 47
10
69.708900
20
-34.114300
11
68.932800
21
-34.114300
0
LINE
8
rib guides 47
10
68.932800
20
-34.114300
11
68.932800
21
-41.663600
0
LINE
8
rib guides 47
10
68.932800
20
-41.663600
11
68.932800
21
-43.850800
0
LINE
8
rib guides 47
10
68.932800
20
-43.850800
11
68.862212
21
-43.921388
0
LINE
8
rib guides 47
10
68.862212
20
-43.921388
11
68.297800
21
-43.921400
0
LINE
8
rib guides 47
10
68.297800
20
-43.921400
11
68.227212
21
-43.850812
0
LINE
8
rib guides 47
10
68.227212
20
-43.850812
11
68.227300
21
-34.114300
0
LINE
8
rib guides 47
10
68.227300
20
-34.114300
11
67.451200
21
-34.114300
0
LINE
8
rib guides 47
10
67.451200
20
-34.114300
11
67.451200
21
-34.114100
0
LINE
8
rib guides 47
10
67.451200
20
-34.114100
11
66.886500
21
-34.114100
0
LINE
8
rib guides 47
10
66.886500
20
-34.114100
11
66.886649
21
-34.184688
0
LINE
8
rib guides 47
10
66.886649
20
-34.184688
11
66.790870
21
-35.622912
0
LINE
8
rib guides 47
10
66.790870
20
-35.622912
11
66.510691
21
-36.992752
0
LINE
8
rib guides 47
10
66.510691
20
-36.992752
11
66.056843
21
-38.255714
0
LINE
8
rib guides 47
10
66.056843
20
-38.255714
11
65.440058
21
-39.373307
0
LINE
8
rib guides 47
10
65.440058
20
-39.373307
11
64.687825
21
-40.289657
0
LINE
8
rib guides 47
10
64.687825
20
-40.289657
11
63.837748
21
-40.963929
0
LINE
8
rib guides 47
10
63.837748
20
-40.963929
11
62.915736
21
-41.380177
0
LINE
8
rib guides 47
10
62.915736
20
-41.380177
11
61.947699
21
-41.522458
0
LINE
8
rib guides 47
10
61.947699
20
-41.522458
11
60.952354
21
-41.373359
0
LINE
8
rib guides 47
10
60.952354
20
-41.373359
11
60.025288
21
-40.945785
0
LINE
8
rib guides 47
10
60.025288
20
-40.945785
11
59.186360
21
-40.269241
0
LINE
8
rib guides 47
10
59.186360
20
-40.269241
11
58.455431
21
-39.373233
0
LINE
8
rib guides 47
10
58.455431
20
-39.373233
11
57.852359
21
-38.287267
0
LINE
8
rib guides 47
10
57.852359
20
-38.287267
11
57.397006
21
-37.040851
0
LINE
8
rib guides 47
10
57.397006
20
-37.040851
11
57.109229
21
-35.663489
0
LINE
8
rib guides 47
10
57.109229
20
-35.663489
11
57.008889
21
-34.184687
0
LINE
8
rib guides 47
10
57.008889
20
-34.184687
11
57.009039
21
-34.114100
0
LINE
8
rib guides 47
10
57.009039
20
-34.114100
11
56.444500
21
-34.114100
0
LINE
8
rib guides 47
10
56.444500
20
-34.114100
11
56.444500
21
-34.114300
0
LINE
8
rib guides 47
10
56.444500
20
-34.114300
11
55.668300
21
-34.114300
0
LINE
8
rib guides 47
10
55.668300
20
-34.114300
11
55.668300
21
-43.850800
0
LINE
8
rib guides 47
10
55.668300
20
-43.850800
11
55.597713
21
-43.921388
0
LINE
8
rib guides 47
10
55.597713
20
-43.921388
11
55.033300
21
-43.921400
0
LINE
8
rib guides 47
10
55.033300
20
-43.921400
11
54.962712
21
-43.850812
0
LINE
8
rib guides 47
10
54.962712
20
-43.850812
11
54.962800
21
-34.114300
0
LINE
8
rib guides 47
10
54.962800
20
-34.114300
11
54.186700
21
-34.114300
0
LINE
8
rib guides 47
10
54.186700
20
-34.114300
11
54.186700
21
-34.114100
0
LINE
8
rib guides 47
10
54.186700
20
-34.114100
11
53.622000
21
-34.114100
0
LINE
8
rib guides 47
10
53.622000
20
-34.114100
11
53.622149
21
-34.184688
0
LINE
8
rib guides 47
10
53.622149
20
-34.184688
11
53.521810
21
-35.663489
0
LINE
8
rib guides 47
10
53.521810
20
-35.663489
11
53.234033
21
-37.040851
0
LINE
8
rib guides 47
10
53.234033
20
-37.040851
11
52.778679
21
-38.287267
0
LINE
8
rib guides 47
10
52.778679
20
-38.287267
11
52.175608
21
-39.373233
0
LINE
8
rib guides 47
10
52.175608
20
-39.373233
11
51.444679
21
-40.269241
0
LINE
8
rib guides 47
10
51.444679
20
-40.269241
11
50.605751
21
-40.945785
0
LINE
8
rib guides 47
10
50.605751
20
-40.945785
11
49.678685
21
-41.373359
0
LINE
8
rib guides 47
10
49.678685
20
-41.373359
11
48.683339
21
-41.522458
0
LINE
8
rib guides 47
10
48.683339
20
-41.522458
11
47.715303
21
-41.380177
0
LINE
8
rib guides 47
10
47.715303
20
-41.380177
11
46.793291
21
-40.963929
0
LINE
8
rib guides 47
10
46.793291
20
-40.963929
11
45.943214
21
-40.289657
0
LINE
8
rib guides 47
10
45.943214
20
-40.289657
11
45.190980
21
-39.373307
0
LINE
8
rib guides 47
10
45.190980
20
-39.373307
11
44.574196
21
-38.255714
0
LINE
8
rib guides 47
10
44.574196
20
-38.255714
11
44.120348
21
-36.992752
0
LINE
8
rib guides 47
10
44.120348
20
-36.992752
11
43.840168
21
-35.622912
0
LINE
8
rib guides 47
10
43.840168
20
-35.622912
11
43.744389
21
-34.184687
0
LINE
8
rib guides 47
10
43.744389
20
-34.184687
11
43.744539
21
-34.114100
0
LINE
8
rib guides 47
10
43.744539
20
-34.114100
11
43.180000
21
-34.114100
0
LINE
8
rib guides 47
10
43.180000
20
-34.114100
11
43.180000
21
-34.114300
0
LINE
8
rib guides 47
10
43.180000
20
-34.114300
11
42.403700
21
-34.114300
0
LINE
8
rib guides 47
10
42.403700
20
-34.114300
11
42.403700
21
-43.850800
0
LINE
8
rib guides 47
10
42.403700
20
-43.850800
11
42.333112
21
-43.921388
0
LINE
8
rib guides 47
10
42.333112
20
-43.921388
11
41.768700
21
-43.921400
0
LINE
8
rib guides 47
10
41.768700
20
-43.921400
11
41.698258
21
-43.850812
0
LINE
8
rib guides 47
10
41.698258
20
-43.850812
11
41.698200
21
-34.114300
0
LINE
8
rib guides 47
10
41.698200
20
-34.114300
11
40.922200
21
-34.114300
0
LINE
8
rib guides 47
10
40.922200
20
-34.114300
11
40.922200
21
-34.114100
0
LINE
8
rib guides 47
10
40.922200
20
-34.114100
11
40.357700
21
-34.114100
0
LINE
8
rib guides 47
10
40.357700
20
-34.114100
11
40.357849
21
-34.184687
0
LINE
8
rib guides 47
10
40.357849
20
-34.184687
11
40.262070
21
-35.622912
0
LINE
8
rib guides 47
10
40.262070
20
-35.622912
11
39.981891
21
-36.992752
0
LINE
8
rib guides 47
10
39.981891
20
-36.992752
11
39.528043
21
-38.255714
0
LINE
8
rib guides 47
10
39.528043
20
-38.255714
11
38.911258
21
-39.373307
0
LINE
8
rib guides 47
10
38.911258
20
-39.373307
11
38.159025
21
-40.289657
0
LINE
8
rib guides 47
10
38.159025
20
-40.289657
11
37.308948
21
-40.963929
0
LINE
8
rib guides 47
10
37.308948
20
-40.963929
11
36.386936
21
-41.380177
0
LINE
8
rib guides 47
10
36.386936
20
-41.380177
11
35.418899
21
-41.522458
0
LINE
8
rib guides 47
10
35.418899
20
-41.522458
11
34.423554
21
-41.373359
0
LINE
8
rib guides 47
10
34.423554
20
-41.373359
11
33.496488
21
-40.945785
0
LINE
8
rib guides 47
10
33.496488
20
-40.945785
11
32.657560
21
-40.269241
0
LINE
8
rib guides 47
10
32.657560
20
-40.269241
11
31.926631
21
-39.373233
0
LINE
8
rib guides 47
10
31.926631
20
-39.373233
11
31.323559
21
-38.287267
0
LINE
8
rib guides 47
10
31.323559
20
-38.287267
11
30.868206
21
-37.040851
0
LINE
8
rib guides 47
10
30.868206
20
-37.040851
11
30.580429
21
-35.663489
0
LINE
8
rib guides 47
10
30.580429
20
-35.663489
11
30.480089
21
-34.184687
0
LINE
8
rib guides 47
10
30.480089
20
-34.184687
11
30.480239
21
-34.114100
0
LINE
8
rib guides 47
10
30.480239
20
-34.114100
11
29.915500
21
-34.114100
0
LINE
8
rib guides 47
10
29.915500
20
-34.114100
11
29.915500
21
-34.114300
0
LINE
8
rib guides 47
10
29.915500
20
-34.114300
11
29.139500
21
-34.114300
0
LINE
8
rib guides 47
10
29.139500
20
-34.114300
11
29.139500
21
-43.850800
0
LINE
8
rib guides 47
10
29.139500
20
-43.850800
11
29.068913
21
-43.921388
0
LINE
8
rib guides 47
10
29.068913
20
-43.921388
11
28.504500
21
-43.921400
0
LINE
8
rib guides 47
10
28.504500
20
-43.921400
11
28.433913
21
-43.850812
0
LINE
8
rib guides 47
10
28.433913
20
-43.850812
11
28.433900
21
-34.114300
0
LINE
8
rib guides 47
10
28.433900
20
-34.114300
11
27.657900
21
-34.114300
0
LINE
8
rib guides 47
10
27.657900
20
-34.114300
11
27.657900
21
-34.114100
0
LINE
8
rib guides 47
10
27.657900
20
-34.114100
11
27.093200
21
-34.114100
0
LINE
8
rib guides 47
10
27.093200
20
-34.114100
11
27.093349
21
-34.184687
0
LINE
8
rib guides 47
10
27.093349
20
-34.184687
11
26.993010
21
-35.663489
0
LINE
8
rib guides 47
10
26.993010
20
-35.663489
11
26.705233
21
-37.040851
0
LINE
8
rib guides 47
10
26.705233
20
-37.040851
11
26.249879
21
-38.287267
0
LINE
8
rib guides 47
10
26.249879
20
-38.287267
11
25.646808
21
-39.373233
0
LINE
8
rib guides 47
10
25.646808
20
-39.373233
11
24.915879
21
-40.269241
0
LINE
8
rib guides 47
10
24.915879
20
-40.269241
11
24.076951
21
-40.945785
0
LINE
8
rib guides 47
10
24.076951
20
-40.945785
11
23.149885
21
-41.373359
0
LINE
8
rib guides 47
10
23.149885
20
-41.373359
11
22.154539
21
-41.522458
0
LINE
8
rib guides 47
10
22.154539
20
-41.522458
11
21.186503
21
-41.380177
0
LINE
8
rib guides 47
10
21.186503
20
-41.380177
11
20.264491
21
-40.963929
0
LINE
8
rib guides 47
10
20.264491
20
-40.963929
11
19.414414
21
-40.289657
0
LINE
8
rib guides 47
10
19.414414
20
-40.289657
11
18.662180
21
-39.373307
0
LINE
8
rib guides 47
10
18.662180
20
-39.373307
11
18.045396
21
-38.255714
0
LINE
8
rib guides 47
10
18.045396
20
-38.255714
11
17.591548
21
-36.992752
0
LINE
8
rib guides 47
10
17.591548
20
-36.992752
11
17.311368
21
-35.622912
0
LINE
8
rib guides 47
10
17.311368
20
-35.622912
11
17.215589
21
-34.184687
0
LINE
8
rib guides 47
10
17.215589
20
-34.184687
11
17.215739
21
-34.114100
0
LINE
8
rib guides 47
10
17.215739
20
-34.114100
11
17.005000
21
-34.114100
0
LINE
8
rib guides 47
10
17.005000
20
-34.114100
11
16.651100
21
-34.114100
0
LINE
8
rib guides 47
10
16.651100
20
-34.114100
11
15.875000
21
-34.114100
0
LINE
8
rib guides 47
10
15.875000
20
-34.114100
11
15.875000
21
-43.850700
0
LINE
8
rib guides 47
10
15.875000
20
-43.850700
11
15.804558
21
-43.921288
0
LINE
8
rib guides 47
10
15.804558
20
-43.921288
11
15.240000
21
-43.921300
0
LINE
8
rib guides 47
10
15.240000
20
-43.921300
11
15.169558
21
-43.850713
0
LINE
8
rib guides 47
10
15.169558
20
-43.850713
11
15.169500
21
-34.114100
0
LINE
8
rib guides 47
10
15.169500
20
-34.114100
11
14.393400
21
-34.114100
0
LINE
8
rib guides 47
10
14.393400
20
-34.114100
11
14.039500
21
-34.114100
0
LINE
8
rib guides 47
10
14.039500
20
-34.114100
11
13.828800
21
-34.114100
0
LINE
8
rib guides 47
10
13.828800
20
-34.114100
11
13.828949
21
-34.184687
0
LINE
8
rib guides 47
10
13.828949
20
-34.184687
11
13.733170
21
-35.622912
0
LINE
8
rib guides 47
10
13.733170
20
-35.622912
11
13.452991
21
-36.992752
0
LINE
8
rib guides 47
10
13.452991
20
-36.992752
11
12.999143
21
-38.255714
0
LINE
8
rib guides 47
10
12.999143
20
-38.255714
11
12.382358
21
-39.373307
0
LINE
8
rib guides 47
10
12.382358
20
-39.373307
11
11.630125
21
-40.289657
0
LINE
8
rib guides 47
10
11.630125
20
-40.289657
11
10.780048
21
-40.963929
0
LINE
8
rib guides 47
10
10.780048
20
-40.963929
11
9.858036
21
-41.380177
0
LINE
8
rib guides 47
10
9.858036
20
-41.380177
11
8.889999
21
-41.522458
0
LINE
8
rib guides 47
10
8.889999
20
-41.522458
11
7.894654
21
-41.373359
0
LINE
8
rib guides 47
10
7.894654
20
-41.373359
11
6.967588
21
-40.945785
0
LINE
8
rib guides 47
10
6.967588
20
-40.945785
11
6.128660
21
-40.269241
0
LINE
8
rib guides 47
10
6.128660
20
-40.269241
11
5.397731
21
-39.373233
0
LINE
8
rib guides 47
10
5.397731
20
-39.373233
11
4.794659
21
-38.287267
0
LINE
8
rib guides 47
10
4.794659
20
-38.287267
11
4.339306
21
-37.040851
0
LINE
8
rib guides 47
10
4.339306
20
-37.040851
11
4.051529
21
-35.663489
0
LINE
8
rib guides 47
10
4.051529
20
-35.663489
11
3.951189
21
-34.184687
0
LINE
8
rib guides 47
10
3.951189
20
-34.184687
11
3.951339
21
-34.114100
0
LINE
8
rib guides 47
10
3.951339
20
-34.114100
11
3.740310
21
-34.114100
0
LINE
8
rib guides 47
10
3.740310
20
-34.114100
11
3.386610
21
-34.114100
0
LINE
8
rib guides 47
10
6.984980
20
-29.664300
11
6.984980
21
-33.192100
0
LINE
8
rib guides 47
10
6.984980
20
-33.192100
11
8.537180
21
-33.192100
0
LINE
8
rib guides 47
10
8.537180
20
-33.192100
11
8.537180
21
-31.004900
0
LINE
8
rib guides 47
10
8.537180
20
-31.004900
11
8.607767
21
-30.934313
0
LINE
8
rib guides 47
10
8.607767
20
-30.934313
11
9.172170
21
-30.934300
0
LINE
8
rib guides 47
10
9.172170
20
-30.934300
11
9.242758
21
-31.004887
0
LINE
8
rib guides 47
10
9.242758
20
-31.004887
11
9.242760
21
-40.741500
0
LINE
8
rib guides 47
10
9.242760
20
-40.741500
11
10.018787
21
-40.741649
0
LINE
8
rib guides 47
10
10.018787
20
-40.741649
11
10.372500
21
-40.741600
0
LINE
8
rib guides 47
10
10.372500
20
-40.741600
11
10.583500
21
-40.741600
0
LINE
8
rib guides 47
10
10.583500
20
-40.741600
11
10.583351
21
-40.671012
0
LINE
8
rib guides 47
10
10.583351
20
-40.671012
11
10.683690
21
-39.192213
0
LINE
8
rib guides 47
10
10.683690
20
-39.192213
11
10.971467
21
-37.814852
0
LINE
8
rib guides 47
10
10.971467
20
-37.814852
11
11.426821
21
-36.568435
0
LINE
8
rib guides 47
10
11.426821
20
-36.568435
11
12.029892
21
-35.482470
0
LINE
8
rib guides 47
10
12.029892
20
-35.482470
11
12.760821
21
-34.586462
0
LINE
8
rib guides 47
10
12.760821
20
-34.586462
11
13.599749
21
-33.909917
0
LINE
8
rib guides 47
10
13.599749
20
-33.909917
11
14.526815
21
-33.482342
0
LINE
8
rib guides 47
10
14.526815
20
-33.482342
11
15.522161
21
-33.333242
0
LINE
8
rib guides 47
10
15.522161
20
-33.333242
11
16.517527
21
-33.482303
0
LINE
8
rib guides 47
10
16.517527
20
-33.482303
11
17.444616
21
-33.909853
0
LINE
8
rib guides 47
10
17.444616
20
-33.909853
11
18.283567
21
-34.586385
0
LINE
8
rib guides 47
10
18.283567
20
-34.586385
11
19.014519
21
-35.482391
0
LINE
8
rib guides 47
10
19.014519
20
-35.482391
11
19.617611
21
-36.568364
0
LINE
8
rib guides 47
10
19.617611
20
-36.568364
11
20.072981
21
-37.814797
0
LINE
8
rib guides 47
10
20.072981
20
-37.814797
11
20.360768
21
-39.192182
0
LINE
8
rib guides 47
10
20.360768
20
-39.192182
11
20.461111
21
-40.671012
0
LINE
8
rib guides 47
10
20.461111
20
-40.671012
11
20.460961
21
-40.741600
0
LINE
8
rib guides 47
10
20.460961
20
-40.741600
11
20.671700
21
-40.741600
0
LINE
8
rib guides 47
10
20.671700
20
-40.741600
11
21.025500
21
-40.741600
0
LINE
8
rib guides 47
10
21.025500
20
-40.741600
11
21.801700
21
-40.741600
0
LINE
8
rib guides 47
10
21.801700
20
-40.741600
11
21.801700
21
-31.005000
0
LINE
8
rib guides 47
10
21.801700
20
-31.005000
11
21.872142
21
-30.934413
0
LINE
8
rib guides 47
10
21.872142
20
-30.934413
11
22.436700
21
-30.934500
0
LINE
8
rib guides 47
10
22.436700
20
-30.934500
11
22.507142
21
-31.005087
0
LINE
8
rib guides 47
10
22.507142
20
-31.005087
11
22.507100
21
-40.741600
0
LINE
8
rib guides 47
10
22.507100
20
-40.741600
11
23.283300
21
-40.741600
0
LINE
8
rib guides 47
10
23.283300
20
-40.741600
11
23.637100
21
-40.741600
0
LINE
8
rib guides 47
10
23.637100
20
-40.741600
11
23.847800
21
-40.741600
0
LINE
8
rib guides 47
10
23.847800
20
-40.741600
11
23.847651
21
-40.671012
0
LINE
8
rib guides 47
10
23.847651
20
-40.671012
11
23.947994
21
-39.192182
0
LINE
8
rib guides 47
10
23.947994
20
-39.192182
11
24.235782
21
-37.814797
0
LINE
8
rib guides 47
10
24.235782
20
-37.814797
11
24.691152
21
-36.568364
0
LINE
8
rib guides 47
10
24.691152
20
-36.568364
11
25.294243
21
-35.482391
0
LINE
8
rib guides 47
10
25.294243
20
-35.482391
11
26.025195
21
-34.586385
0
LINE
8
rib guides 47
10
26.025195
20
-34.586385
11
26.864146
21
-33.909854
0
LINE
8
rib guides 47
10
26.864146
20
-33.909854
11
27.791235
21
-33.482304
0
LINE
8
rib guides 47
10
27.791235
20
-33.482304
11
28.786601
21
-33.333242
0
LINE
8
rib guides 47
10
28.786601
20
-33.333242
11
29.781946
21
-33.482341
0
LINE
8
rib guides 47
10
29.781946
20
-33.482341
11
30.709011
21
-33.909916
0
LINE
8
rib guides 47
10
30.709011
20
-33.909916
11
31.547938
21
-34.586461
0
LINE
8
rib guides 47
10
31.547938
20
-34.586461
11
32.278867
21
-35.482469
0
LINE
8
rib guides 47
10
32.278867
20
-35.482469
11
32.881938
21
-36.568435
0
LINE
8
rib guides 47
10
32.881938
20
-36.568435
11
33.337292
21
-37.814851
0
LINE
8
rib guides 47
10
33.337292
20
-37.814851
11
33.625069
21
-39.192213
0
LINE
8
rib guides 47
10
33.625069
20
-39.192213
11
33.725411
21
-40.671012
0
LINE
8
rib guides 47
10
33.725411
20
-40.671012
11
33.725261
21
-40.741600
0
LINE
8
rib guides 47
10
33.725261
20
-40.741600
11
34.290000
21
-40.741600
0
LINE
8
rib guides 47
10
34.290000
20
-40.741600
11
34.290000
21
-40.741500
0
LINE
8
rib guides 47
10
34.290000
20
-40.741500
11
35.066000
21
-40.741500
0
LINE
8
rib guides 47
10
35.066000
20
-40.741500
11
35.066000
21
-31.004900
0
LINE
8
rib guides 47
10
35.066000
20
-31.004900
11
35.136588
21
-30.934313
0
LINE
8
rib guides 47
10
35.136588
20
-30.934313
11
35.701000
21
-30.934300
0
LINE
8
rib guides 47
10
35.701000
20
-30.934300
11
35.771588
21
-31.004887
0
LINE
8
rib guides 47
10
35.771588
20
-31.004887
11
35.771600
21
-40.741500
0
LINE
8
rib guides 47
10
35.771600
20
-40.741500
11
36.547600
21
-40.741500
0
LINE
8
rib guides 47
10
36.547600
20
-40.741500
11
36.547600
21
-40.741600
0
LINE
8
rib guides 47
10
36.547600
20
-40.741600
11
37.112400
21
-40.741600
0
LINE
8
rib guides 47
10
37.112400
20
-40.741600
11
37.112251
21
-40.671012
0
LINE
8
rib guides 47
10
37.112251
20
-40.671012
11
37.212590
21
-39.192213
0
LINE
8
rib guides 47
10
37.212590
20
-39.192213
11
37.500367
21
-37.814852
0
LINE
8
rib guides 47
10
37.500367
20
-37.814852
11
37.955721
21
-36.568435
0
LINE
8
rib guides 47
10
37.955721
20
-36.568435
11
38.558792
21
-35.482470
0
LINE
8
rib guides 47
10
38.558792
20
-35.482470
11
39.289721
21
-34.586462
0
LINE
8
rib guides 47
10
39.289721
20
-34.586462
11
40.128649
21
-33.909917
0
LINE
8
rib guides 47
10
40.128649
20
-33.909917
11
41.055715
21
-33.482342
0
LINE
8
rib guides 47
10
41.055715
20
-33.482342
11
42.051061
21
-33.333242
0
LINE
8
rib guides 47
10
42.051061
20
-33.333242
11
43.046427
21
-33.482303
0
LINE
8
rib guides 47
10
43.046427
20
-33.482303
11
43.973516
21
-33.909853
0
LINE
8
rib guides 47
10
43.973516
20
-33.909853
11
44.812467
21
-34.586384
0
LINE
8
rib guides 47
10
44.812467
20
-34.586384
11
45.543419
21
-35.482390
0
LINE
8
rib guides 47
10
45.543419
20
-35.482390
11
46.146511
21
-36.568363
0
LINE
8
rib guides 47
10
46.146511
20
-36.568363
11
46.601881
21
-37.814796
0
LINE
8
rib guides 47
10
46.601881
20
-37.814796
11
46.889668
21
-39.192182
0
LINE
8
rib guides 47
10
46.889668
20
-39.192182
11
46.990011
21
-40.671012
0
LINE
8
rib guides 47
10
46.990011
20
-40.671012
11
46.989861
21
-40.741600
0
LINE
8
rib guides 47
10
46.989861
20
-40.741600
11
47.554400
21
-40.741600
0
LINE
8
rib guides 47
10
47.554400
20
-40.741600
11
47.554400
21
-40.741500
0
LINE
8
rib guides 47
10
47.554400
20
-40.741500
11
48.330400
21
-40.741500
0
LINE
8
rib guides 47
10
48.330400
20
-40.741500
11
48.330400
21
-31.004900
0
LINE
8
rib guides 47
10
48.330400
20
-31.004900
11
48.400842
21
-30.934313
0
LINE
8
rib guides 47
10
48.400842
20
-30.934313
11
48.965200
21
-30.934300
0
LINE
8
rib guides 47
10
48.965200
20
-30.934300
11
49.035788
21
-31.004887
0
LINE
8
rib guides 47
10
49.035788
20
-31.004887
11
49.035800
21
-40.741500
0
LINE
8
rib guides 47
10
49.035800
20
-40.741500
11
49.812200
21
-40.741500
0
LINE
8
rib guides 47
10
49.812200
20
-40.741500
11
49.812200
21
-40.741600
0
LINE
8
rib guides 47
10
49.812200
20
-40.741600
11
50.376700
21
-40.741600
0
LINE
8
rib guides 47
10
50.376700
20
-40.741600
11
50.376551
21
-40.671012
0
LINE
8
rib guides 47
10
50.376551
20
-40.671012
11
50.476894
21
-39.192182
0
LINE
8
rib guides 47
10
50.476894
20
-39.192182
11
50.764682
21
-37.814797
0
LINE
8
rib guides 47
10
50.764682
20
-37.814797
11
51.220052
21
-36.568364
0
LINE
8
rib guides 47
10
51.220052
20
-36.568364
11
51.823143
21
-35.482391
0
LINE
8
rib guides 47
10
51.823143
20
-35.482391
11
52.554095
21
-34.586385
0
LINE
8
rib guides 47
10
52.554095
20
-34.586385
11
53.393046
21
-33.909854
0
LINE
8
rib guides 47
10
53.393046
20
-33.909854
11
54.320135
21
-33.482304
0
LINE
8
rib guides 47
10
54.320135
20
-33.482304
11
55.315501
21
-33.333242
0
LINE
8
rib guides 47
10
55.315501
20
-33.333242
11
56.310846
21
-33.482341
0
LINE
8
rib guides 47
10
56.310846
20
-33.482341
11
57.237911
21
-33.909916
0
LINE
8
rib guides 47
10
57.237911
20
-33.909916
11
58.076838
21
-34.586461
0
LINE
8
rib guides 47
10
58.076838
20
-34.586461
11
58.807767
21
-35.482469
0
LINE
8
rib guides 47
10
58.807767
20
-35.482469
11
59.410838
21
-36.568435
0
LINE
8
rib guides 47
10
59.410838
20
-36.568435
11
59.866192
21
-37.814851
0
LINE
8
rib guides 47
10
59.866192
20
-37.814851
11
60.153969
21
-39.192213
0
LINE
8
rib guides 47
10
60.153969
20
-39.192213
11
60.254311
21
-40.671012
0
LINE
8
rib guides 47
10
60.254311
20
-40.671012
11
60.254161
21
-40.741600
0
LINE
8
rib guides 47
10
60.254161
20
-40.741600
11
60.818900
21
-40.741600
0
LINE
8
rib guides 47
10
60.818900
20
-40.741600
11
60.818900
21
-40.741500
0
LINE
8
rib guides 47
10
60.818900
20
-40.741500
11
61.594900
21
-40.741500
0
LINE
8
rib guides 47
10
61.594900
20
-40.741500
11
61.594900
21
-31.004900
0
LINE
8
rib guides 47
10
61.594900
20
-31.004900
11
61.665488
21
-30.934313
0
LINE
8
rib guides 47
10
61.665488
20
-30.934313
11
62.229900
21
-30.934300
0
LINE
8
rib guides 47
10
62.229900
20
-30.934300
11
62.300488
21
-31.004887
0
LINE
8
rib guides 47
10
62.300488
20
-31.004887
11
62.300500
21
-40.741500
0
LINE
8
rib guides 47
10
62.300500
20
-40.741500
11
63.076700
21
-40.741500
0
LINE
8
rib guides 47
10
63.076700
20
-40.741500
11
63.076700
21
-40.741600
0
LINE
8
rib guides 47
10
63.076700
20
-40.741600
11
63.641200
21
-40.741600
0
LINE
8
rib guides 47
10
63.641200
20
-40.741600
11
63.641051
21
-40.671012
0
LINE
8
rib guides 47
10
63.641051
20
-40.671012
11
63.741390
21
-39.192213
0
LINE
8
rib guides 47
10
63.741390
20
-39.192213
11
64.029167
21
-37.814852
0
LINE
8
rib guides 47
10
64.029167
20
-37.814852
11
64.484521
21
-36.568435
0
LINE
8
rib guides 47
10
64.484521
20
-36.568435
11
65.087592
21
-35.482470
0
LINE
8
rib guides 47
10
65.087592
20
-35.482470
11
65.818521
21
-34.586462
0
LINE
8
rib guides 47
10
65.818521
20
-34.586462
11
66.657449
21
-33.909917
0
LINE
8
rib guides 47
10
66.657449
20
-33.909917
11
67.584515
21
-33.482342
0
LINE
8
rib guides 47
10
67.584515
20
-33.482342
11
68.579861
21
-33.333242
0
LINE
8
rib guides 47
10
68.579861
20
-33.333242
11
69.575227
21
-33.482303
0
LINE
8
rib guides 47
10
69.575227
20
-33.482303
11
70.502316
21
-33.909853
0
LINE
8
rib guides 47
10
70.502316
20
-33.909853
11
71.341267
21
-34.586384
0
LINE
8
rib guides 47
10
71.341267
20
-34.586384
11
72.072219
21
-35.482390
0
LINE
8
rib guides 47
10
72.072219
20
-35.482390
11
72.675311
21
-36.568363
0
LINE
8
rib guides 47
10
72.675311
20
-36.568363
11
73.130681
21
-37.814796
0
LINE
8
rib guides 47
10
73.130681
20
-37.814796
11
73.418468
21
-39.192182
0
LINE
8
rib guides 47
10
73.418468
20
-39.192182
11
73.518811
21
-40.671012
0
LINE
8
rib guides 47
10
73.518811
20
-40.671012
11
73.518661
21
-40.741600
0
LINE
8
rib guides 47
10
73.518661
20
-40.741600
11
74.083400
21
-40.741600
0
LINE
8
rib guides 47
10
74.083400
20
-40.741600
11
74.083400
21
-40.741500
0
LINE
8
rib guides 47
10
74.083400
20
-40.741500
11
74.859400
21
-40.741500
0
LINE
8
rib guides 47
10
74.859400
20
-40.741500
11
74.859400
21
-31.004900
0
LINE
8
rib guides 47
10
74.859400
20
-31.004900
11
74.929987
21
-30.934313
0
LINE
8
rib guides 47
10
74.929987
20
-30.934313
11
75.071000
21
-30.934300
0
LINE
8
rib guides 47
10
75.071000
20
-30.934300
11
75.494400
21
-30.934300
0
LINE
8
rib guides 47
10
75.494400
20
-30.934300
11
75.521677
21
-30.939841
0
LINE
8
rib guides 47
10
75.521677
20
-30.939841
11
75.521677
21
-30.939841
0
LINE
8
rib guides 47
10
75.521677
20
-30.939841
11
75.543997
21
-30.955008
0
LINE
8
rib guides 47
10
75.543997
20
-30.955008
11
75.564703
21
-31.004886
0
LINE
8
rib guides 47
10
75.564703
20
-31.004886
11
75.564700
21
-40.741500
0
LINE
8
rib guides 47
10
75.564700
20
-40.741500
11
76.341000
21
-40.741500
0
LINE
8
rib guides 47
10
76.341000
20
-40.741500
11
76.341000
21
-40.741600
0
LINE
8
rib guides 47
10
76.341000
20
-40.741600
11
76.905400
21
-40.741600
0
LINE
8
rib guides 47
10
76.905400
20
-40.741600
11
76.905400
21
-40.671012
0
LINE
8
rib guides 47
10
76.905400
20
-40.671012
11
77.005745
21
-39.192182
0
LINE
8
rib guides 47
10
77.005745
20
-39.192182
11
77.293533
21
-37.814797
0
LINE
8
rib guides 47
10
77.293533
20
-37.814797
11
77.748903
21
-36.568364
0
LINE
8
rib guides 47
10
77.748903
20
-36.568364
11
78.351994
21
-35.482391
0
LINE
8
rib guides 47
10
78.351994
20
-35.482391
11
79.082945
21
-34.586385
0
LINE
8
rib guides 47
10
79.082945
20
-34.586385
11
79.921896
21
-33.909854
0
LINE
8
rib guides 47
10
79.921896
20
-33.909854
11
80.848984
21
-33.482304
0
LINE
8
rib guides 47
10
80.848984
20
-33.482304
11
81.844350
21
-33.333242
0
LINE
8
rib guides 47
10
81.844350
20
-33.333242
11
82.839695
21
-33.482342
0
LINE
8
rib guides 47
10
82.839695
20
-33.482342
11
83.766761
21
-33.909917
0
LINE
8
rib guides 47
10
83.766761
20
-33.909917
11
84.605687
21
-34.586461
0
LINE
8
rib guides 47
10
84.605687
20
-34.586461
11
85.336615
21
-35.482470
0
LINE
8
rib guides 47
10
85.336615
20
-35.482470
11
85.939685
21
-36.568435
0
LINE
8
rib guides 47
10
85.939685
20
-36.568435
11
86.395037
21
-37.814851
0
LINE
8
rib guides 47
10
86.395037
20
-37.814851
11
86.682812
21
-39.192213
0
LINE
8
rib guides 47
10
86.682812
20
-39.192213
11
86.783150
21
-40.671012
0
LINE
8
rib guides 47
10
86.783150
20
-40.671012
11
86.783150
21
-40.741600
0
LINE
8
rib guides 47
10
86.783150
20
-40.741600
11
87.347900
21
-40.741600
0
LINE
8
rib guides 47
10
87.347900
20
-40.741600
11
87.347900
21
-40.741500
0
LINE
8
rib guides 47
10
87.347900
20
-40.741500
11
88.123900
21
-40.741500
0
LINE
8
rib guides 47
10
88.123900
20
-40.741500
11
88.123900
21
-31.004900
0
LINE
8
rib guides 47
10
88.123900
20
-31.004900
11
88.194487
21
-30.934313
0
LINE
8
rib guides 47
10
88.194487
20
-30.934313
11
88.758900
21
-30.934300
0
LINE
8
rib guides 47
10
88.758900
20
-30.934300
11
88.829487
21
-31.004887
0
LINE
8
rib guides 47
10
88.829487
20
-31.004887
11
88.829500
21
-40.741500
0
LINE
8
rib guides 47
10
88.829500
20
-40.741500
11
89.605600
21
-40.741500
0
LINE
8
rib guides 47
10
89.605600
20
-40.741500
11
89.605600
21
-40.741600
0
LINE
8
rib guides 47
10
89.605600
20
-40.741600
11
90.170100
21
-40.741600
0
LINE
8
rib guides 47
10
90.170100
20
-40.741600
11
90.170100
21
-40.671012
0
LINE
8
rib guides 47
10
90.170100
20
-40.671012
11
90.270441
21
-39.192212
0
LINE
8
rib guides 47
10
90.270441
20
-39.192212
11
90.558218
21
-37.814850
0
LINE
8
rib guides 47
10
90.558218
20
-37.814850
11
91.013572
21
-36.568433
0
LINE
8
rib guides 47
10
91.013572
20
-36.568433
11
91.616643
21
-35.482466
0
LINE
8
rib guides 47
10
91.616643
20
-35.482466
11
92.347572
21
-34.586458
0
LINE
8
rib guides 47
10
92.347572
20
-34.586458
11
93.186499
21
-33.909913
0
LINE
8
rib guides 47
10
93.186499
20
-33.909913
11
94.113565
21
-33.482339
0
LINE
8
rib guides 47
10
94.113565
20
-33.482339
11
95.108910
21
-33.333242
0
LINE
8
rib guides 47
10
95.108910
20
-33.333242
11
96.104279
21
-33.482303
0
LINE
8
rib guides 47
10
96.104279
20
-33.482303
11
97.031369
21
-33.909852
0
LINE
8
rib guides 47
10
97.031369
20
-33.909852
11
97.870321
21
-34.586384
0
LINE
8
rib guides 47
10
97.870321
20
-34.586384
11
98.601273
21
-35.482390
0
LINE
8
rib guides 47
10
98.601273
20
-35.482390
11
99.204363
21
-36.568363
0
LINE
8
rib guides 47
10
99.204363
20
-36.568363
11
99.659732
21
-37.814796
0
LINE
8
rib guides 47
10
99.659732
20
-37.814796
11
99.947518
21
-39.192182
0
LINE
8
rib guides 47
10
99.947518
20
-39.192182
11
100.047860
21
-40.671012
0
LINE
8
rib guides 47
10
100.047860
20
-40.671012
11
100.047860
21
-40.741600
0
LINE
8
rib guides 47
10
100.047860
20
-40.741600
11
100.613000
21
-40.741600
0
LINE
8
rib guides 47
10
100.613000
20
-40.741600
11
100.613000
21
-40.741500
0
LINE
8
rib guides 47
10
100.613000
20
-40.741500
11
101.389000
21
-40.741500
0
LINE
8
rib guides 47
10
101.389000
20
-40.741500
11
101.389000
21
-31.004900
0
LINE
8
rib guides 47
10
101.389000
20
-31.004900
11
101.459587
21
-30.934313
0
LINE
8
rib guides 47
10
101.459587
20
-30.934313
11
102.024000
21
-30.934300
0
LINE
8
rib guides 47
10
102.024000
20
-30.934300
11
102.094587
21
-31.004887
0
LINE
8
rib guides 47
10
102.094587
20
-31.004887
11
102.094000
21
-33.192100
0
LINE
8
rib guides 47
10
102.094000
20
-33.192100
11
103.646000
21
-33.192100
0
LINE
8
rib guides 47
10
103.646000
20
-33.192100
11
103.646000
21
-29.664300
0
LINE
8
rib guides 47
10
103.646000
20
-29.664300
11
93.839100
21
-29.664300
0
LINE
8
rib guides 47
10
93.839100
20
-29.664300
11
79.728000
21
-29.664300
0
LINE
8
rib guides 47
10
79.728000
20
-29.664300
11
75.071100
21
-29.664300
0
LINE
8
rib guides 47
10
75.071100
20
-29.664300
11
67.309900
21
-29.664300
0
LINE
8
rib guides 47
10
67.309900
20
-29.664300
11
53.198800
21
-29.664300
0
LINE
8
rib guides 47
10
53.198800
20
-29.664300
11
35.136600
21
-29.664300
0
LINE
8
rib guides 47
10
35.136600
20
-29.664300
11
21.025500
21
-29.664300
0
LINE
8
rib guides 47
10
21.025500
20
-29.664300
11
6.984980
21
-29.664300
0
LINE
8
rib guides 50
10
3.951310
20
-50.140700
11
2.610580
21
-50.142014
0
LINE
8
rib guides 50
10
2.610580
20
-50.142014
11
2.610580
21
-59.949200
0
LINE
8
rib guides 50
10
2.610580
20
-59.949200
11
2.539992
21
-60.019787
0
LINE
8
rib guides 50
10
2.539992
20
-60.019787
11
1.975580
21
-60.019800
0
LINE
8
rib guides 50
10
1.975580
20
-60.019800
11
1.904992
21
-59.949213
0
LINE
8
rib guides 50
10
1.904992
20
-59.949213
11
1.904990
21
-57.762000
0
LINE
8
rib guides 50
10
1.904990
20
-57.762000
11
0.352793
21
-57.762000
0
LINE
8
rib guides 50
10
0.352793
20
-57.762000
11
0.352793
21
-61.289800
0
LINE
8
rib guides 50
10
0.352793
20
-61.289800
11
14.393300
21
-61.289800
0
LINE
8
rib guides 50
10
14.393300
20
-61.289800
11
28.504500
21
-61.289800
0
LINE
8
rib guides 50
10
28.504500
20
-61.289800
11
38.872200
21
-61.289800
0
LINE
8
rib guides 50
10
38.872200
20
-61.289800
11
46.566600
21
-61.289800
0
LINE
8
rib guides 50
10
46.566600
20
-61.289800
11
60.677700
21
-61.289800
0
LINE
8
rib guides 50
10
60.677700
20
-61.289800
11
72.813300
21
-61.289800
0
LINE
8
rib guides 50
10
72.813300
20
-61.289800
11
72.813300
21
-61.289800
0
LINE
8
rib guides 50
10
72.813300
20
-61.289800
11
74.788600
21
-61.289800
0
LINE
8
rib guides 50
10
74.788600
20
-61.289800
11
88.899700
21
-61.289800
0
LINE
8
rib guides 50
10
88.899700
20
-61.289800
11
102.940000
21
-61.289800
0
LINE
8
rib guides 50
10
102.940000
20
-61.289800
11
102.940000
21
-57.762000
0
LINE
8
rib guides 50
10
102.940000
20
-57.762000
11
101.388000
21
-57.762000
0
LINE
8
rib guides 50
10
101.388000
20
-57.762000
11
101.388000
21
-59.949200
0
LINE
8
rib guides 50
10
101.388000
20
-59.949200
11
101.317563
21
-60.019787
0
LINE
8
rib guides 50
10
101.317563
20
-60.019787
11
100.753000
21
-60.019800
0
LINE
8
rib guides 50
10
100.753000
20
-60.019800
11
100.682563
21
-59.949213
0
LINE
8
rib guides 50
10
100.682563
20
-59.949213
11
100.683000
21
-50.142200
0
LINE
8
rib guides 50
10
100.683000
20
-50.142200
11
99.624200
21
-50.142200
0
LINE
8
rib guides 50
10
99.624200
20
-50.142200
11
99.341700
21
-50.142200
0
LINE
8
rib guides 50
10
99.341700
20
-50.142200
11
99.224149
21
-51.666883
0
LINE
8
rib guides 50
10
99.224149
20
-51.666883
11
98.906129
21
-53.085484
0
LINE
8
rib guides 50
10
98.906129
20
-53.085484
11
98.408920
21
-54.368043
0
LINE
8
rib guides 50
10
98.408920
20
-54.368043
11
97.753800
21
-55.484600
0
LINE
8
rib guides 50
10
97.753800
20
-55.484600
11
96.962050
21
-56.405193
0
LINE
8
rib guides 50
10
96.962050
20
-56.405193
11
96.054949
21
-57.099861
0
LINE
8
rib guides 50
10
96.054949
20
-57.099861
11
95.053776
21
-57.538644
0
LINE
8
rib guides 50
10
95.053776
20
-57.538644
11
93.979810
21
-57.691580
0
LINE
8
rib guides 50
10
93.979810
20
-57.691580
11
92.905800
21
-57.538670
0
LINE
8
rib guides 50
10
92.905800
20
-57.538670
11
91.904577
21
-57.099913
0
LINE
8
rib guides 50
10
91.904577
20
-57.099913
11
90.997426
21
-56.405266
0
LINE
8
rib guides 50
10
90.997426
20
-56.405266
11
90.205627
21
-55.484686
0
LINE
8
rib guides 50
10
90.205627
20
-55.484686
11
89.550465
21
-54.368132
0
LINE
8
rib guides 50
10
89.550465
20
-54.368132
11
89.053221
21
-53.085561
0
LINE
8
rib guides 50
10
89.053221
20
-53.085561
11
88.735179
21
-51.666931
0
LINE
8
rib guides 50
10
88.735179
20
-51.666931
11
88.617620
21
-50.142200
0
LINE
8
rib guides 50
10
88.617620
20
-50.142200
11
88.335300
21
-50.142200
0
LINE
8
rib guides 50
10
88.335300
20
-50.142200
11
87.276900
21
-50.142200
0
LINE
8
rib guides 50
10
87.276900
20
-50.142200
11
87.276900
21
-57.691600
0
LINE
8
rib guides 50
10
87.276900
20
-57.691600
11
87.276900
21
-59.949400
0
LINE
8
rib guides 50
10
87.276900
20
-59.949400
11
87.206455
21
-60.019987
0
LINE
8
rib guides 50
10
87.206455
20
-60.019987
11
86.641900
21
-60.020000
0
LINE
8
rib guides 50
10
86.641900
20
-60.020000
11
86.571463
21
-59.949413
0
LINE
8
rib guides 50
10
86.571463
20
-59.949413
11
86.571500
21
-50.142200
0
LINE
8
rib guides 50
10
86.571500
20
-50.142200
11
85.513100
21
-50.142200
0
LINE
8
rib guides 50
10
85.513100
20
-50.142200
11
85.230600
21
-50.142200
0
LINE
8
rib guides 50
10
85.230600
20
-50.142200
11
85.113049
21
-51.666883
0
LINE
8
rib guides 50
10
85.113049
20
-51.666883
11
84.795028
21
-53.085484
0
LINE
8
rib guides 50
10
84.795028
20
-53.085484
11
84.297817
21
-54.368043
0
LINE
8
rib guides 50
10
84.297817
20
-54.368043
11
83.642695
21
-55.484600
0
LINE
8
rib guides 50
10
83.642695
20
-55.484600
11
82.850943
21
-56.405193
0
LINE
8
rib guides 50
10
82.850943
20
-56.405193
11
81.943840
21
-57.099861
0
LINE
8
rib guides 50
10
81.943840
20
-57.099861
11
80.942666
21
-57.538644
0
LINE
8
rib guides 50
10
80.942666
20
-57.538644
11
79.868700
21
-57.691580
0
LINE
8
rib guides 50
10
79.868700
20
-57.691580
11
78.794690
21
-57.538670
0
LINE
8
rib guides 50
10
78.794690
20
-57.538670
11
77.793469
21
-57.099913
0
LINE
8
rib guides 50
10
77.793469
20
-57.099913
11
76.886318
21
-56.405266
0
LINE
8
rib guides 50
10
76.886318
20
-56.405266
11
76.094521
21
-55.484686
0
LINE
8
rib guides 50
10
76.094521
20
-55.484686
11
75.439359
21
-54.368132
0
LINE
8
rib guides 50
10
75.439359
20
-54.368132
11
74.942115
21
-53.085561
0
LINE
8
rib guides 50
10
74.942115
20
-53.085561
11
74.624072
21
-51.666931
0
LINE
8
rib guides 50
10
74.624072
20
-51.666931
11
74.506510
21
-50.142200
0
LINE
8
rib guides 50
10
74.506510
20
-50.142200
11
74.224100
21
-50.142200
0
LINE
8
rib guides 50
10
74.224100
20
-50.142200
11
74.224100
21
-50.143200
0
LINE
8
rib guides 50
10
74.224100
20
-50.143200
11
73.164700
21
-50.143200
0
LINE
8
rib guides 50
10
73.164700
20
-50.143200
11
73.164700
21
-57.692600
0
LINE
8
rib guides 50
10
73.164700
20
-57.692600
11
73.164700
21
-59.950400
0
LINE
8
rib guides 50
10
73.164700
20
-59.950400
11
73.144427
21
-59.999989
0
LINE
8
rib guides 50
10
73.144427
20
-59.999989
11
73.141217
21
-60.002901
0
LINE
8
rib guides 50
10
73.141217
20
-60.002901
11
73.141067
21
-60.002901
0
LINE
8
rib guides 50
10
73.141067
20
-60.002901
11
73.095565
21
-60.019673
0
LINE
8
rib guides 50
10
73.095565
20
-60.019673
11
72.531100
21
-60.019700
0
LINE
8
rib guides 50
10
72.531100
20
-60.019700
11
72.460658
21
-59.949113
0
LINE
8
rib guides 50
10
72.460658
20
-59.949113
11
72.460600
21
-50.142000
0
LINE
8
rib guides 50
10
72.460600
20
-50.142000
11
71.402200
21
-50.142000
0
LINE
8
rib guides 50
10
71.402200
20
-50.142000
11
71.119700
21
-50.142000
0
LINE
8
rib guides 50
10
71.119700
20
-50.142000
11
71.002148
21
-51.666683
0
LINE
8
rib guides 50
10
71.002148
20
-51.666683
11
70.684127
21
-53.085284
0
LINE
8
rib guides 50
10
70.684127
20
-53.085284
11
70.186916
21
-54.367844
0
LINE
8
rib guides 50
10
70.186916
20
-54.367844
11
69.531795
21
-55.484401
0
LINE
8
rib guides 50
10
69.531795
20
-55.484401
11
68.740043
21
-56.404995
0
LINE
8
rib guides 50
10
68.740043
20
-56.404995
11
67.832940
21
-57.099665
0
LINE
8
rib guides 50
10
67.832940
20
-57.099665
11
66.831766
21
-57.538450
0
LINE
8
rib guides 50
10
66.831766
20
-57.538450
11
65.757800
21
-57.691390
0
LINE
8
rib guides 50
10
65.757800
20
-57.691390
11
64.683790
21
-57.538480
0
LINE
8
rib guides 50
10
64.683790
20
-57.538480
11
63.682569
21
-57.099721
0
LINE
8
rib guides 50
10
63.682569
20
-57.099721
11
62.775418
21
-56.405073
0
LINE
8
rib guides 50
10
62.775418
20
-56.405073
11
61.983621
21
-55.484491
0
LINE
8
rib guides 50
10
61.983621
20
-55.484491
11
61.328459
21
-54.367935
0
LINE
8
rib guides 50
10
61.328459
20
-54.367935
11
60.831215
21
-53.085363
0
LINE
8
rib guides 50
10
60.831215
20
-53.085363
11
60.513172
21
-51.666732
0
LINE
8
rib guides 50
10
60.513172
20
-51.666732
11
60.395610
21
-50.142000
0
LINE
8
rib guides 50
10
60.395610
20
-50.142000
11
60.113300
21
-50.142000
0
LINE
8
rib guides 50
10
60.113300
20
-50.142000
11
59.054900
21
-50.142000
0
LINE
8
rib guides 50
10
59.054900
20
-50.142000
11
59.054900
21
-57.691400
0
LINE
8
rib guides 50
10
59.054900
20
-57.691400
11
59.054900
21
-59.949200
0
LINE
8
rib guides 50
10
59.054900
20
-59.949200
11
58.984459
21
-60.019787
0
LINE
8
rib guides 50
10
58.984459
20
-60.019787
11
58.419900
21
-60.019800
0
LINE
8
rib guides 50
10
58.419900
20
-60.019800
11
58.349458
21
-59.949213
0
LINE
8
rib guides 50
10
58.349458
20
-59.949213
11
58.349500
21
-50.142000
0
LINE
8
rib guides 50
10
58.349500
20
-50.142000
11
57.291100
21
-50.142000
0
LINE
8
rib guides 50
10
57.291100
20
-50.142000
11
57.008600
21
-50.142000
0
LINE
8
rib guides 50
10
57.008600
20
-50.142000
11
56.891048
21
-51.666683
0
LINE
8
rib guides 50
10
56.891048
20
-51.666683
11
56.573027
21
-53.085284
0
LINE
8
rib guides 50
10
56.573027
20
-53.085284
11
56.075816
21
-54.367844
0
LINE
8
rib guides 50
10
56.075816
20
-54.367844
11
55.420695
21
-55.484401
0
LINE
8
rib guides 50
10
55.420695
20
-55.484401
11
54.628943
21
-56.404995
0
LINE
8
rib guides 50
10
54.628943
20
-56.404995
11
53.721840
21
-57.099665
0
LINE
8
rib guides 50
10
53.721840
20
-57.099665
11
52.720666
21
-57.538450
0
LINE
8
rib guides 50
10
52.720666
20
-57.538450
11
51.646700
21
-57.691390
0
LINE
8
rib guides 50
10
51.646700
20
-57.691390
11
50.572690
21
-57.538480
0
LINE
8
rib guides 50
10
50.572690
20
-57.538480
11
49.571469
21
-57.099721
0
LINE
8
rib guides 50
10
49.571469
20
-57.099721
11
48.664318
21
-56.405073
0
LINE
8
rib guides 50
10
48.664318
20
-56.405073
11
47.872521
21
-55.484491
0
LINE
8
rib guides 50
10
47.872521
20
-55.484491
11
47.217359
21
-54.367935
0
LINE
8
rib guides 50
10
47.217359
20
-54.367935
11
46.720115
21
-53.085363
0
LINE
8
rib guides 50
10
46.720115
20
-53.085363
11
46.402072
21
-51.666732
0
LINE
8
rib guides 50
10
46.402072
20
-51.666732
11
46.284510
21
-50.142000
0
LINE
8
rib guides 50
10
46.284510
20
-50.142000
11
46.002200
21
-50.142000
0
LINE
8
rib guides 50
10
46.002200
20
-50.142000
11
46.002200
21
-50.143100
0
LINE
8
rib guides 50
10
46.002200
20
-50.143100
11
44.942800
21
-50.143100
0
LINE
8
rib guides 50
10
44.942800
20
-50.143100
11
44.942800
21
-57.692400
0
LINE
8
rib guides 50
10
44.942800
20
-57.692400
11
44.942800
21
-59.950200
0
LINE
8
rib guides 50
10
44.942800
20
-59.950200
11
44.872212
21
-60.020787
0
LINE
8
rib guides 50
10
44.872212
20
-60.020787
11
44.307800
21
-60.020800
0
LINE
8
rib guides 50
10
44.307800
20
-60.020800
11
44.237212
21
-59.950213
0
LINE
8
rib guides 50
10
44.237212
20
-59.950213
11
44.237200
21
-55.015800
0
LINE
8
rib guides 50
10
44.237200
20
-55.015800
11
44.237200
21
-52.044300
0
LINE
8
rib guides 50
10
44.237200
20
-52.044300
11
44.237200
21
-50.143100
0
LINE
8
rib guides 50
10
44.237200
20
-50.143100
11
43.180000
21
-50.143100
0
LINE
8
rib guides 50
10
43.180000
20
-50.143100
11
43.180000
21
-50.142000
0
LINE
8
rib guides 50
10
43.180000
20
-50.142000
11
42.897500
21
-50.142000
0
LINE
8
rib guides 50
10
42.897500
20
-50.142000
11
42.779948
21
-51.666683
0
LINE
8
rib guides 50
10
42.779948
20
-51.666683
11
42.461927
21
-53.085284
0
LINE
8
rib guides 50
10
42.461927
20
-53.085284
11
41.964716
21
-54.367844
0
LINE
8
rib guides 50
10
41.964716
20
-54.367844
11
41.309595
21
-55.484401
0
LINE
8
rib guides 50
10
41.309595
20
-55.484401
11
40.517843
21
-56.404995
0
LINE
8
rib guides 50
10
40.517843
20
-56.404995
11
39.610740
21
-57.099665
0
LINE
8
rib guides 50
10
39.610740
20
-57.099665
11
38.609566
21
-57.538450
0
LINE
8
rib guides 50
10
38.609566
20
-57.538450
11
37.535600
21
-57.691390
0
LINE
8
rib guides 50
10
37.535600
20
-57.691390
11
36.461576
21
-57.538476
0
LINE
8
rib guides 50
10
36.461576
20
-57.538476
11
35.460344
21
-57.099707
0
LINE
8
rib guides 50
10
35.460344
20
-57.099707
11
34.553185
21
-56.405041
0
LINE
8
rib guides 50
10
34.553185
20
-56.405041
11
33.761384
21
-55.484440
0
LINE
8
rib guides 50
10
33.761384
20
-55.484440
11
33.106223
21
-54.367862
0
LINE
8
rib guides 50
10
33.106223
20
-54.367862
11
32.608985
21
-53.085266
0
LINE
8
rib guides 50
10
32.608985
20
-53.085266
11
32.290953
21
-51.666612
0
LINE
8
rib guides 50
10
32.290953
20
-51.666612
11
32.173410
21
-50.141860
0
LINE
8
rib guides 50
10
32.173410
20
-50.141860
11
32.172500
21
-50.141900
0
LINE
8
rib guides 50
10
32.172500
20
-50.141900
11
30.830500
21
-50.141900
0
LINE
8
rib guides 50
10
30.830500
20
-50.141900
11
30.830500
21
-53.290500
0
LINE
8
rib guides 50
10
30.830500
20
-53.290500
11
30.830500
21
-55.219100
0
LINE
8
rib guides 50
10
30.830500
20
-55.219100
11
30.830500
21
-59.949100
0
LINE
8
rib guides 50
10
30.830500
20
-59.949100
11
30.759913
21
-60.019694
0
LINE
8
rib guides 50
10
30.759913
20
-60.019694
11
30.196100
21
-60.019700
0
LINE
8
rib guides 50
10
30.196100
20
-60.019700
11
30.125513
21
-59.949106
0
LINE
8
rib guides 50
10
30.125513
20
-59.949106
11
30.125500
21
-57.691300
0
LINE
8
rib guides 50
10
30.125500
20
-57.691300
11
30.125500
21
-53.290500
0
LINE
8
rib guides 50
10
30.125500
20
-53.290500
11
30.125500
21
-50.141900
0
LINE
8
rib guides 50
10
30.125500
20
-50.141900
11
28.786400
21
-50.141900
0
LINE
8
rib guides 50
10
28.786400
20
-50.141900
11
28.668866
21
-51.666606
0
LINE
8
rib guides 50
10
28.668866
20
-51.666606
11
28.350856
21
-53.085233
0
LINE
8
rib guides 50
10
28.350856
20
-53.085233
11
27.853651
21
-54.367817
0
LINE
8
rib guides 50
10
27.853651
20
-54.367817
11
27.198531
21
-55.484398
0
LINE
8
rib guides 50
10
27.198531
20
-55.484398
11
26.406776
21
-56.405011
0
LINE
8
rib guides 50
10
26.406776
20
-56.405011
11
25.499665
21
-57.099696
0
LINE
8
rib guides 50
10
25.499665
20
-57.099696
11
24.498480
21
-57.538490
0
LINE
8
rib guides 50
10
24.498480
20
-57.538490
11
23.424500
21
-57.691430
0
LINE
8
rib guides 50
10
23.424500
20
-57.691430
11
22.350390
21
-57.538490
0
LINE
8
rib guides 50
10
22.350390
20
-57.538490
11
21.349094
21
-57.099630
0
LINE
8
rib guides 50
10
21.349094
20
-57.099630
11
20.441900
21
-56.404825
0
LINE
8
rib guides 50
10
20.441900
20
-56.404825
11
19.650092
21
-55.484049
0
LINE
8
rib guides 50
10
19.650092
20
-55.484049
11
18.994959
21
-54.367277
0
LINE
8
rib guides 50
10
18.994959
20
-54.367277
11
18.497785
21
-53.084483
0
LINE
8
rib guides 50
10
18.497785
20
-53.084483
11
18.179856
21
-51.665643
0
LINE
8
rib guides 50
10
18.179856
20
-51.665643
11
18.062460
21
-50.140730
0
LINE
8
rib guides 50
10
18.062460
20
-50.140730
11
18.060800
21
-50.140700
0
LINE
8
rib guides 50
10
18.060800
20
-50.140700
11
16.719400
21
-50.140700
0
LINE
8
rib guides 50
10
16.719400
20
-50.140700
11
16.719400
21
-59.947900
0
LINE
8
rib guides 50
10
16.719400
20
-59.947900
11
16.648813
21
-60.018487
0
LINE
8
rib guides 50
10
16.648813
20
-60.018487
11
16.084400
21
-60.018500
0
LINE
8
rib guides 50
10
16.084400
20
-60.018500
11
16.013813
21
-59.947913
0
LINE
8
rib guides 50
10
16.013813
20
-59.947913
11
16.013800
21
-57.690100
0
LINE
8
rib guides 50
10
16.013800
20
-57.690100
11
16.013800
21
-50.140700
0
LINE
8
rib guides 50
10
16.013800
20
-50.140700
11
14.675200
21
-50.140700
0
LINE
8
rib guides 50
10
14.675200
20
-50.140700
11
14.557808
21
-51.665585
0
LINE
8
rib guides 50
10
14.557808
20
-51.665585
11
14.239890
21
-53.084404
0
LINE
8
rib guides 50
10
14.239890
20
-53.084404
11
13.742732
21
-54.367183
0
LINE
8
rib guides 50
10
13.742732
20
-54.367183
11
13.087619
21
-55.483947
0
LINE
8
rib guides 50
10
13.087619
20
-55.483947
11
12.295834
21
-56.404725
0
LINE
8
rib guides 50
10
12.295834
20
-56.404725
11
11.388663
21
-57.099542
0
LINE
8
rib guides 50
10
11.388663
20
-57.099542
11
10.387390
21
-57.538425
0
LINE
8
rib guides 50
10
10.387390
20
-57.538425
11
9.313300
21
-57.691400
0
LINE
8
rib guides 50
10
9.313300
20
-57.691400
11
8.239190
21
-57.538460
0
LINE
8
rib guides 50
10
8.239190
20
-57.538460
11
7.237894
21
-57.099600
0
LINE
8
rib guides 50
10
7.237894
20
-57.099600
11
6.330700
21
-56.404795
0
LINE
8
rib guides 50
10
6.330700
20
-56.404795
11
5.538892
21
-55.484019
0
LINE
8
rib guides 50
10
5.538892
20
-55.484019
11
4.883759
21
-54.367247
0
LINE
8
rib guides 50
10
4.883759
20
-54.367247
11
4.386585
21
-53.084453
0
LINE
8
rib guides 50
10
4.386585
20
-53.084453
11
4.068656
21
-51.665613
0
LINE
8
rib guides 50
10
4.068656
20
-51.665613
11
3.951260
21
-50.140700
0
LINE
8
rib guides 50
10
3.951260
20
-50.140700
11
3.951310
21
-50.140700
0
LINE
8
rib guides 50
10
7.410690
20
-45.820400
11
7.410690
21
-49.348200
0
LINE
8
rib guides 50
10
7.410690
20
-49.348200
11
8.962890
21
-49.348200
0
LINE
8
rib guides 50
10
8.962890
20
-49.348200
11
8.962890
21
-47.161000
0
LINE
8
rib guides 50
10
8.962890
20
-47.161000
11
9.033478
21
-47.090412
0
LINE
8
rib guides 50
10
9.033478
20
-47.090412
11
9.597890
21
-47.090400
0
LINE
8
rib guides 50
10
9.597890
20
-47.090400
11
9.668477
21
-47.160988
0
LINE
8
rib guides 50
10
9.668477
20
-47.160988
11
9.668480
21
-56.968100
0
LINE
8
rib guides 50
10
9.668480
20
-56.968100
11
11.009210
21
-56.969593
0
LINE
8
rib guides 50
10
11.009210
20
-56.969593
11
11.126607
21
-55.444681
0
LINE
8
rib guides 50
10
11.126607
20
-55.444681
11
11.444535
21
-54.025840
0
LINE
8
rib guides 50
10
11.444535
20
-54.025840
11
11.941709
21
-52.743047
0
LINE
8
rib guides 50
10
11.941709
20
-52.743047
11
12.596843
21
-51.626275
0
LINE
8
rib guides 50
10
12.596843
20
-51.626275
11
13.388650
21
-50.705499
0
LINE
8
rib guides 50
10
13.388650
20
-50.705499
11
14.295844
21
-50.010694
0
LINE
8
rib guides 50
10
14.295844
20
-50.010694
11
15.297140
21
-49.571834
0
LINE
8
rib guides 50
10
15.297140
20
-49.571834
11
16.371250
21
-49.418893
0
LINE
8
rib guides 50
10
16.371250
20
-49.418893
11
17.445337
21
-49.571867
0
LINE
8
rib guides 50
10
17.445337
20
-49.571867
11
18.446607
21
-50.010749
0
LINE
8
rib guides 50
10
18.446607
20
-50.010749
11
19.353777
21
-50.705566
0
LINE
8
rib guides 50
10
19.353777
20
-50.705566
11
20.145561
21
-51.626344
0
LINE
8
rib guides 50
10
20.145561
20
-51.626344
11
20.800675
21
-52.743109
0
LINE
8
rib guides 50
10
20.800675
20
-52.743109
11
21.297835
21
-54.025889
0
LINE
8
rib guides 50
10
21.297835
20
-54.025889
11
21.615754
21
-55.444708
0
LINE
8
rib guides 50
10
21.615754
20
-55.444708
11
21.733150
21
-56.969593
0
LINE
8
rib guides 50
10
21.733150
20
-56.969593
11
23.071700
21
-56.969500
0
LINE
8
rib guides 50
10
23.071700
20
-56.969500
11
23.071700
21
-49.420100
0
LINE
8
rib guides 50
10
23.071700
20
-49.420100
11
23.071700
21
-47.162300
0
LINE
8
rib guides 50
10
23.071700
20
-47.162300
11
23.142288
21
-47.091712
0
LINE
8
rib guides 50
10
23.142288
20
-47.091712
11
23.706700
21
-47.091800
0
LINE
8
rib guides 50
10
23.706700
20
-47.091800
11
23.777287
21
-47.162388
0
LINE
8
rib guides 50
10
23.777287
20
-47.162388
11
23.777300
21
-56.969500
0
LINE
8
rib guides 50
10
23.777300
20
-56.969500
11
25.118700
21
-56.969500
0
LINE
8
rib guides 50
10
25.118700
20
-56.969500
11
25.120300
21
-56.969500
0
LINE
8
rib guides 50
10
25.120300
20
-56.969500
11
25.237697
21
-55.444587
0
LINE
8
rib guides 50
10
25.237697
20
-55.444587
11
25.555625
21
-54.025747
0
LINE
8
rib guides 50
10
25.555625
20
-54.025747
11
26.052799
21
-52.742953
0
LINE
8
rib guides 50
10
26.052799
20
-52.742953
11
26.707933
21
-51.626181
0
LINE
8
rib guides 50
10
26.707933
20
-51.626181
11
27.499740
21
-50.705405
0
LINE
8
rib guides 50
10
27.499740
20
-50.705405
11
28.406934
21
-50.010600
0
LINE
8
rib guides 50
10
28.406934
20
-50.010600
11
29.408230
21
-49.571740
0
LINE
8
rib guides 50
10
29.408230
20
-49.571740
11
30.482340
21
-49.418800
0
LINE
8
rib guides 50
10
30.482340
20
-49.418800
11
31.556320
21
-49.571742
0
LINE
8
rib guides 50
10
31.556320
20
-49.571742
11
32.557505
21
-50.010537
0
LINE
8
rib guides 50
10
32.557505
20
-50.010537
11
33.464615
21
-50.705224
0
LINE
8
rib guides 50
10
33.464615
20
-50.705224
11
34.256370
21
-51.625838
0
LINE
8
rib guides 50
10
34.256370
20
-51.625838
11
34.911490
21
-52.742418
0
LINE
8
rib guides 50
10
34.911490
20
-52.742418
11
35.408695
21
-54.025002
0
LINE
8
rib guides 50
10
35.408695
20
-54.025002
11
35.726705
21
-55.443627
0
LINE
8
rib guides 50
10
35.726705
20
-55.443627
11
35.844240
21
-56.968330
0
LINE
8
rib guides 50
10
35.844240
20
-56.968330
11
37.183400
21
-56.968300
0
LINE
8
rib guides 50
10
37.183400
20
-56.968300
11
37.183400
21
-53.819800
0
LINE
8
rib guides 50
10
37.183400
20
-53.819800
11
37.183400
21
-49.419000
0
LINE
8
rib guides 50
10
37.183400
20
-49.419000
11
37.183400
21
-47.161200
0
LINE
8
rib guides 50
10
37.183400
20
-47.161200
11
37.253988
21
-47.090612
0
LINE
8
rib guides 50
10
37.253988
20
-47.090612
11
37.817800
21
-47.090600
0
LINE
8
rib guides 50
10
37.817800
20
-47.090600
11
37.888388
21
-47.161188
0
LINE
8
rib guides 50
10
37.888388
20
-47.161188
11
37.888400
21
-51.891100
0
LINE
8
rib guides 50
10
37.888400
20
-51.891100
11
37.888400
21
-53.819800
0
LINE
8
rib guides 50
10
37.888400
20
-53.819800
11
37.888400
21
-56.968300
0
LINE
8
rib guides 50
10
37.888400
20
-56.968300
11
39.230400
21
-56.968300
0
LINE
8
rib guides 50
10
39.230400
20
-56.968300
11
39.231300
21
-56.968300
0
LINE
8
rib guides 50
10
39.231300
20
-56.968300
11
39.348842
21
-55.443539
0
LINE
8
rib guides 50
10
39.348842
20
-55.443539
11
39.666873
21
-54.024869
0
LINE
8
rib guides 50
10
39.666873
20
-54.024869
11
40.164109
21
-52.742254
0
LINE
8
rib guides 50
10
40.164109
20
-52.742254
11
40.819270
21
-51.625660
0
LINE
8
rib guides 50
10
40.819270
20
-51.625660
11
41.611070
21
-50.705050
0
LINE
8
rib guides 50
10
41.611070
20
-50.705050
11
42.518229
21
-50.010389
0
LINE
8
rib guides 50
10
42.518229
20
-50.010389
11
43.519463
21
-49.571641
0
LINE
8
rib guides 50
10
43.519463
20
-49.571641
11
44.593490
21
-49.418770
0
LINE
8
rib guides 50
10
44.593490
20
-49.418770
11
45.667456
21
-49.571708
0
LINE
8
rib guides 50
10
45.667456
20
-49.571708
11
46.668629
21
-50.010492
0
LINE
8
rib guides 50
10
46.668629
20
-50.010492
11
47.575731
21
-50.705162
0
LINE
8
rib guides 50
10
47.575731
20
-50.705162
11
48.367482
21
-51.625756
0
LINE
8
rib guides 50
10
48.367482
20
-51.625756
11
49.022603
21
-52.742312
0
LINE
8
rib guides 50
10
49.022603
20
-52.742312
11
49.519814
21
-54.024871
0
LINE
8
rib guides 50
10
49.519814
20
-54.024871
11
49.837836
21
-55.443470
0
LINE
8
rib guides 50
10
49.837836
20
-55.443470
11
49.955390
21
-56.968150
0
LINE
8
rib guides 50
10
49.955390
20
-56.968150
11
50.237900
21
-56.968200
0
LINE
8
rib guides 50
10
50.237900
20
-56.968200
11
50.237900
21
-56.967000
0
LINE
8
rib guides 50
10
50.237900
20
-56.967000
11
51.295100
21
-56.967000
0
LINE
8
rib guides 50
10
51.295100
20
-56.967000
11
51.295100
21
-55.065800
0
LINE
8
rib guides 50
10
51.295100
20
-55.065800
11
51.295100
21
-52.094300
0
LINE
8
rib guides 50
10
51.295100
20
-52.094300
11
51.295100
21
-47.159800
0
LINE
8
rib guides 50
10
51.295100
20
-47.159800
11
51.365687
21
-47.089212
0
LINE
8
rib guides 50
10
51.365687
20
-47.089212
11
51.930100
21
-47.089200
0
LINE
8
rib guides 50
10
51.930100
20
-47.089200
11
52.000688
21
-47.159788
0
LINE
8
rib guides 50
10
52.000688
20
-47.159788
11
52.000700
21
-49.417600
0
LINE
8
rib guides 50
10
52.000700
20
-49.417600
11
52.000700
21
-56.967000
0
LINE
8
rib guides 50
10
52.000700
20
-56.967000
11
53.060100
21
-56.967000
0
LINE
8
rib guides 50
10
53.060100
20
-56.967000
11
53.060100
21
-56.968200
0
LINE
8
rib guides 50
10
53.060100
20
-56.968200
11
53.342400
21
-56.968200
0
LINE
8
rib guides 50
10
53.342400
20
-56.968200
11
53.459960
21
-55.443462
0
LINE
8
rib guides 50
10
53.459960
20
-55.443462
11
53.778004
21
-54.024816
0
LINE
8
rib guides 50
10
53.778004
20
-54.024816
11
54.275247
21
-52.742226
0
LINE
8
rib guides 50
10
54.275247
20
-52.742226
11
54.930410
21
-51.625654
0
LINE
8
rib guides 50
10
54.930410
20
-51.625654
11
55.722207
21
-50.705064
0
LINE
8
rib guides 50
10
55.722207
20
-50.705064
11
56.629358
21
-50.010420
0
LINE
8
rib guides 50
10
56.629358
20
-50.010420
11
57.630580
21
-49.571684
0
LINE
8
rib guides 50
10
57.630580
20
-49.571684
11
58.704590
21
-49.418820
0
LINE
8
rib guides 50
10
58.704590
20
-49.418820
11
59.778556
21
-49.571758
0
LINE
8
rib guides 50
10
59.778556
20
-49.571758
11
60.779729
21
-50.010542
0
LINE
8
rib guides 50
10
60.779729
20
-50.010542
11
61.686831
21
-50.705212
0
LINE
8
rib guides 50
10
61.686831
20
-50.705212
11
62.478582
21
-51.625806
0
LINE
8
rib guides 50
10
62.478582
20
-51.625806
11
63.133703
21
-52.742362
0
LINE
8
rib guides 50
10
63.133703
20
-52.742362
11
63.630914
21
-54.024921
0
LINE
8
rib guides 50
10
63.630914
20
-54.024921
11
63.948936
21
-55.443520
0
LINE
8
rib guides 50
10
63.948936
20
-55.443520
11
64.066490
21
-56.968200
0
LINE
8
rib guides 50
10
64.066490
20
-56.968200
11
64.349000
21
-56.968200
0
LINE
8
rib guides 50
10
64.349000
20
-56.968200
11
65.407400
21
-56.968200
0
LINE
8
rib guides 50
10
65.407400
20
-56.968200
11
65.407400
21
-47.161000
0
LINE
8
rib guides 50
10
65.407400
20
-47.161000
11
65.477842
21
-47.090412
0
LINE
8
rib guides 50
10
65.477842
20
-47.090412
11
66.042400
21
-47.090400
0
LINE
8
rib guides 50
10
66.042400
20
-47.090400
11
66.112842
21
-47.160988
0
LINE
8
rib guides 50
10
66.112842
20
-47.160988
11
66.112800
21
-49.418800
0
LINE
8
rib guides 50
10
66.112800
20
-49.418800
11
66.112800
21
-56.968200
0
LINE
8
rib guides 50
10
66.112800
20
-56.968200
11
67.171200
21
-56.968200
0
LINE
8
rib guides 50
10
67.171200
20
-56.968200
11
67.453600
21
-56.968200
0
LINE
8
rib guides 50
10
67.453600
20
-56.968200
11
67.571160
21
-55.443462
0
LINE
8
rib guides 50
10
67.571160
20
-55.443462
11
67.889204
21
-54.024816
0
LINE
8
rib guides 50
10
67.889204
20
-54.024816
11
68.386447
21
-52.742226
0
LINE
8
rib guides 50
10
68.386447
20
-52.742226
11
69.041610
21
-51.625654
0
LINE
8
rib guides 50
10
69.041610
20
-51.625654
11
69.833407
21
-50.705064
0
LINE
8
rib guides 50
10
69.833407
20
-50.705064
11
70.740558
21
-50.010420
0
LINE
8
rib guides 50
10
70.740558
20
-50.010420
11
71.741780
21
-49.571684
0
LINE
8
rib guides 50
10
71.741780
20
-49.571684
11
72.815790
21
-49.418820
0
LINE
8
rib guides 50
10
72.815790
20
-49.418820
11
73.889756
21
-49.571758
0
LINE
8
rib guides 50
10
73.889756
20
-49.571758
11
74.890929
21
-50.010542
0
LINE
8
rib guides 50
10
74.890929
20
-50.010542
11
75.798031
21
-50.705212
0
LINE
8
rib guides 50
10
75.798031
20
-50.705212
11
76.589781
21
-51.625806
0
LINE
8
rib guides 50
10
76.589781
20
-51.625806
11
77.244901
21
-52.742362
0
LINE
8
rib guides 50
10
77.244901
20
-52.742362
11
77.742110
21
-54.024921
0
LINE
8
rib guides 50
10
77.742110
20
-54.024921
11
78.060130
21
-55.443520
0
LINE
8
rib guides 50
10
78.060130
20
-55.443520
11
78.177680
21
-56.968200
0
LINE
8
rib guides 50
10
78.177680
20
-56.968200
11
78.460100
21
-56.968200
0
LINE
8
rib guides 50
10
78.460100
20
-56.968200
11
79.518500
21
-56.968200
0
LINE
8
rib guides 50
10
79.518500
20
-56.968200
11
79.518500
21
-47.161000
0
LINE
8
rib guides 50
10
79.518500
20
-47.161000
11
79.588937
21
-47.090412
0
LINE
8
rib guides 50
10
79.588937
20
-47.090412
11
80.153500
21
-47.090400
0
LINE
8
rib guides 50
10
80.153500
20
-47.090400
11
80.223937
21
-47.160988
0
LINE
8
rib guides 50
10
80.223937
20
-47.160988
11
80.224000
21
-49.348200
0
LINE
8
rib guides 50
10
80.224000
20
-49.348200
11
80.224700
21
-49.348200
0
LINE
8
rib guides 50
10
80.224700
20
-49.348200
11
80.224700
21
-49.417600
0
LINE
8
rib guides 50
10
80.224700
20
-49.417600
11
80.224700
21
-56.967000
0
LINE
8
rib guides 50
10
80.224700
20
-56.967000
11
81.284100
21
-56.967000
0
LINE
8
rib guides 50
10
81.284100
20
-56.967000
11
81.284100
21
-56.968200
0
LINE
8
rib guides 50
10
81.284100
20
-56.968200
11
81.566500
21
-56.968200
0
LINE
8
rib guides 50
10
81.566500
20
-56.968200
11
81.684059
21
-55.443462
0
LINE
8
rib guides 50
10
81.684059
20
-55.443462
11
82.002101
21
-54.024818
0
LINE
8
rib guides 50
10
82.002101
20
-54.024818
11
82.499343
21
-52.742228
0
LINE
8
rib guides 50
10
82.499343
20
-52.742228
11
83.154503
21
-51.625658
0
LINE
8
rib guides 50
10
83.154503
20
-51.625658
11
83.946300
21
-50.705068
0
LINE
8
rib guides 50
10
83.946300
20
-50.705068
11
84.853449
21
-50.010424
0
LINE
8
rib guides 50
10
84.853449
20
-50.010424
11
85.854670
21
-49.571687
0
LINE
8
rib guides 50
10
85.854670
20
-49.571687
11
86.928680
21
-49.418820
0
LINE
8
rib guides 50
10
86.928680
20
-49.418820
11
88.002646
21
-49.571757
0
LINE
8
rib guides 50
10
88.002646
20
-49.571757
11
89.003821
21
-50.010540
0
LINE
8
rib guides 50
10
89.003821
20
-50.010540
11
89.910924
21
-50.705208
0
LINE
8
rib guides 50
10
89.910924
20
-50.705208
11
90.702676
21
-51.625801
0
LINE
8
rib guides 50
10
90.702676
20
-51.625801
11
91.357798
21
-52.742357
0
LINE
8
rib guides 50
10
91.357798
20
-52.742357
11
91.855009
21
-54.024916
0
LINE
8
rib guides 50
10
91.855009
20
-54.024916
11
92.173029
21
-55.443517
0
LINE
8
rib guides 50
10
92.173029
20
-55.443517
11
92.290580
21
-56.968200
0
LINE
8
rib guides 50
10
92.290580
20
-56.968200
11
92.573000
21
-56.968200
0
LINE
8
rib guides 50
10
92.573000
20
-56.968200
11
93.631400
21
-56.968200
0
LINE
8
rib guides 50
10
93.631400
20
-56.968200
11
93.631400
21
-47.161000
0
LINE
8
rib guides 50
10
93.631400
20
-47.161000
11
93.701845
21
-47.090412
0
LINE
8
rib guides 50
10
93.701845
20
-47.090412
11
94.266400
21
-47.090400
0
LINE
8
rib guides 50
10
94.266400
20
-47.090400
11
94.336845
21
-47.160988
0
LINE
8
rib guides 50
10
94.336845
20
-47.160988
11
94.336900
21
-49.418800
0
LINE
8
rib guides 50
10
94.336900
20
-49.418800
11
94.336900
21
-56.968200
0
LINE
8
rib guides 50
10
94.336900
20
-56.968200
11
95.395200
21
-56.968200
0
LINE
8
rib guides 50
10
95.395200
20
-56.968200
11
95.677600
21
-56.968200
0
LINE
8
rib guides 50
10
95.677600
20
-56.968200
11
95.795159
21
-55.443462
0
LINE
8
rib guides 50
10
95.795159
20
-55.443462
11
96.113201
21
-54.024818
0
LINE
8
rib guides 50
10
96.113201
20
-54.024818
11
96.610443
21
-52.742228
0
LINE
8
rib guides 50
10
96.610443
20
-52.742228
11
97.265603
21
-51.625658
0
LINE
8
rib guides 50
10
97.265603
20
-51.625658
11
98.057400
21
-50.705068
0
LINE
8
rib guides 50
10
98.057400
20
-50.705068
11
98.964549
21
-50.010424
0
LINE
8
rib guides 50
10
98.964549
20
-50.010424
11
99.965770
21
-49.571687
0
LINE
8
rib guides 50
10
99.965770
20
-49.571687
11
101.039780
21
-49.418820
0
LINE
8
rib guides 50
10
101.039780
20
-49.418820
11
102.113746
21
-49.571758
0
LINE
8
rib guides 50
10
102.113746
20
-49.571758
11
103.114919
21
-50.010542
0
LINE
8
rib guides 50
10
103.114919
20
-50.010542
11
104.022021
21
-50.705212
0
LINE
8
rib guides 50
10
104.022021
20
-50.705212
11
104.813771
21
-51.625806
0
LINE
8
rib guides 50
10
104.813771
20
-51.625806
11
105.468891
21
-52.742362
0
LINE
8
rib guides 50
10
105.468891
20
-52.742362
11
105.966100
21
-54.024921
0
LINE
8
rib guides 50
10
105.966100
20
-54.024921
11
106.284120
21
-55.443520
0
LINE
8
rib guides 50
10
106.284120
20
-55.443520
11
106.401670
21
-56.968200
0
LINE
8
rib guides 50
10
106.401670
20
-56.968200
11
106.684000
21
-56.968200
0
LINE
8
rib guides 50
10
106.684000
20
-56.968200
11
107.743000
21
-56.968200
0
LINE
8
rib guides 50
10
107.743000
20
-56.968200
11
107.743000
21
-47.161000
0
LINE
8
rib guides 50
10
107.743000
20
-47.161000
11
107.813437
21
-47.090412
0
LINE
8
rib guides 50
10
107.813437
20
-47.090412
11
108.378000
21
-47.090400
0
LINE
8
rib guides 50
10
108.378000
20
-47.090400
11
108.448437
21
-47.160988
0
LINE
8
rib guides 50
10
108.448437
20
-47.160988
11
108.448000
21
-49.348200
0
LINE
8
rib guides 50
10
108.448000
20
-49.348200
11
110.000000
21
-49.348200
0
LINE
8
rib guides 50
10
110.000000
20
-49.348200
11
110.000000
21
-45.820400
0
LINE
8
rib guides 50
10
110.000000
20
-45.820400
11
95.959600
21
-45.820400
0
LINE
8
rib guides 50
10
95.959600
20
-45.820400
11
81.848500
21
-45.820400
0
LINE
8
rib guides 50
10
81.848500
20
-45.820400
11
81.776500
21
-45.820400
0
LINE
8
rib guides 50
10
81.776500
20
-45.820400
11
80.151300
21
-45.820400
0
LINE
8
rib guides 50
10
80.151300
20
-45.820400
11
67.735600
21
-45.820400
0
LINE
8
rib guides 50
10
67.735600
20
-45.820400
11
53.624500
21
-45.820400
0
LINE
8
rib guides 50
10
53.624500
20
-45.820400
11
45.930100
21
-45.820400
0
LINE
8
rib guides 50
10
45.930100
20
-45.820400
11
35.562400
21
-45.820400
0
LINE
8
rib guides 50
10
35.562400
20
-45.820400
11
21.451200
21
-45.820400
0
LINE
8
rib guides 50
10
21.451200
20
-45.820400
11
7.410690
21
-45.820400
0
LINE
8
cut test circles
10
1.693330
20
14.957800
11
1.528008
21
14.558678
0
LINE
8
cut test circles
10
1.528008
20
14.558678
11
1.128886
21
14.393356
0
LINE
8
cut test circles
10
1.128886
20
14.393356
11
0.729764
21
14.558678
0
LINE
8
cut test circles
10
0.729764
20
14.558678
11
0.564442
21
14.957800
0
LINE
8
cut test circles
10
0.564442
20
14.957800
11
0.729764
21
15.356922
0
LINE
8
cut test circles
10
0.729764
20
15.356922
11
1.128886
21
15.522244
0
LINE
8
cut test circles
10
1.128886
20
15.522244
11
1.528008
21
15.356922
0
LINE
8
cut test circles
10
1.528008
20
15.356922
11
1.693330
21
14.957800
0
LINE
8
cut test circles
10
1.693330
20
14.957800
11
1.693330
21
14.957800
0
LINE
8
cut test circles
10
1.693330
20
13.264500
11
1.528008
21
12.865378
0
LINE
8
cut test circles
10
1.528008
20
12.865378
11
1.128886
21
12.700056
0
LINE
8
cut test circles
10
1.128886
20
12.700056
11
0.729764
21
12.865378
0
LINE
8
cut test circles
10
0.729764
20
12.865378
11
0.564442
21
13.264500
0
LINE
8
cut test circles
10
0.564442
20
13.264500
11
0.729764
21
13.663622
0
LINE
8
cut test circles
10
0.729764
20
13.663622
11
1.128886
21
13.828944
0
LINE
8
cut test circles
10
1.128886
20
13.828944
11
1.528008
21
13.663622
0
LINE
8
cut test circles
10
1.528008
20
13.663622
11
1.693330
21
13.264500
0
LINE
8
cut test circles
10
1.693330
20
13.264500
11
1.693330
21
13.264500
0
LINE
8
cut test circles
10
1.693330
20
11.571200
11
1.528008
21
11.172078
0
LINE
8
cut test circles
10
1.528008
20
11.172078
11
1.128886
21
11.006756
0
LINE
8
cut test circles
10
1.128886
20
11.006756
11
0.729764
21
11.172078
0
LINE
8
cut test circles
10
0.729764
20
11.172078
11
0.564442
21
11.571200
0
LINE
8
cut test circles
10
0.564442
20
11.571200
11
0.729764
21
11.970322
0
LINE
8
cut test circles
10
0.729764
20
11.970322
11
1.128886
21
12.135644
0
LINE
8
cut test circles
10
1.128886
20
12.135644
11
1.528008
21
11.970322
0
LINE
8
cut test circles
10
1.528008
20
11.970322
11
1.693330
21
11.571200
0
LINE
8
cut test circles
10
1.693330
20
11.571200
11
1.693330
21
11.571200
0
LINE
8
cut test circles
10
3.386660
20
14.957800
11
3.221338
21
14.558678
0
LINE
8
cut test circles
10
3.221338
20
14.558678
11
2.822216
21
14.393356
0
LINE
8
cut test circles
10
2.822216
20
14.393356
11
2.423094
21
14.558678
0
LINE
8
cut test circles
10
2.423094
20
14.558678
11
2.257772
21
14.957800
0
LINE
8
cut test circles
10
2.257772
20
14.957800
11
2.423094
21
15.356922
0
LINE
8
cut test circles
10
2.423094
20
15.356922
11
2.822216
21
15.522244
0
LINE
8
cut test circles
10
2.822216
20
15.522244
11
3.221338
21
15.356922
0
LINE
8
cut test circles
10
3.221338
20
15.356922
11
3.386660
21
14.957800
0
LINE
8
cut test circles
10
3.386660
20
14.957800
11
3.386660
21
14.957800
0
LINE
8
cut test circles
10
3.386660
20
13.264500
11
3.221338
21
12.865378
0
LINE
8
cut test circles
10
3.221338
20
12.865378
11
2.822216
21
12.700056
0
LINE
8
cut test circles
10
2.822216
20
12.700056
11
2.423094
21
12.865378
0
LINE
8
cut test circles
10
2.423094
20
12.865378
11
2.257772
21
13.264500
0
LINE
8
cut test circles
10
2.257772
20
13.264500
11
2.423094
21
13.663622
0
LINE
8
cut test circles
10
2.423094
20
13.663622
11
2.822216
21
13.828944
0
LINE
8
cut test circles
10
2.822216
20
13.828944
11
3.221338
21
13.663622
0
LINE
8
cut test circles
10
3.221338
20
13.663622
11
3.386660
21
13.264500
0
LINE
8
cut test circles
10
3.386660
20
13.264500
11
3.386660
21
13.264500
0
LINE
8
cut test circles
10
5.080000
20
14.957800
11
4.914678
21
14.558678
0
LINE
8
cut test circles
10
4.914678
20
14.558678
11
4.515556
21
14.393356
0
LINE
8
cut test circles
10
4.515556
20
14.393356
11
4.116434
21
14.558678
0
LINE
8
cut test circles
10
4.116434
20
14.558678
11
3.951112
21
14.957800
0
LINE
8
cut test circles
10
3.951112
20
14.957800
11
4.116434
21
15.356922
0
LINE
8
cut test circles
10
4.116434
20
15.356922
11
4.515556
21
15.522244
0
LINE
8
cut test circles
10
4.515556
20
15.522244
11
4.914678
21
15.356922
0
LINE
8
cut test circles
10
4.914678
20
15.356922
11
5.080000
21
14.957800
0
LINE
8
cut test circles
10
5.080000
20
14.957800
11
5.080000
21
14.957800
0
LINE
8
cut test circles
10
5.080000
20
13.264500
11
4.914678
21
12.865378
0
LINE
8
cut test circles
10
4.914678
20
12.865378
11
4.515556
21
12.700056
0
LINE
8
cut test circles
10
4.515556
20
12.700056
11
4.116434
21
12.865378
0
LINE
8
cut test circles
10
4.116434
20
12.865378
11
3.951112
21
13.264500
0
LINE
8
cut test circles
10
3.951112
20
13.264500
11
4.116434
21
13.663622
0
LINE
8
cut test circles
10
4.116434
20
13.663622
11
4.515556
21
13.828944
0
LINE
8
cut test circles
10
4.515556
20
13.828944
11
4.914678
21
13.663622
0
LINE
8
cut test circles
10
4.914678
20
13.663622
11
5.080000
21
13.264500
0
LINE
8
cut test circles
10
5.080000
20
13.264500
11
5.080000
21
13.264500
 0 
ENDSEC
 0 
EOF